<?xml version="1.0" encoding="utf-8"?>
<!-- Generator: Adobe Illustrator 22.1.0, SVG Export Plug-In . SVG Version: 6.00 Build 0)  -->
<svg version="1.1" id="Layer_1" xmlns="http://www.w3.org/2000/svg" xmlns:xlink="http://www.w3.org/1999/xlink" x="0px" y="0px"
	 viewBox="0 0 285 63" style="enable-background:new 0 0 285 63;" xml:space="preserve">
<g>
	<g id="XMLID_18_">
		<path id="XMLID_25_" d="M282.2,35.5l0-0.2l0-0.1l0-0.2l0-0.2l0-0.1l0-0.1l0-0.2l0-0.1l0-0.1l0-0.2l0-0.2l0-0.1l0-0.2l0-0.1l0-0.2
			l0-0.1l0-0.1l0-0.1l0-0.2l0-0.2l0-0.1l0-0.2l0-0.1l0-0.2l0-0.1l0-0.2l0-0.2l0-0.1l0-0.1l0-0.2l-0.1-0.2l0-0.2l0-0.2l0-0.1l0-0.1
			l0-0.1l0-0.1l-0.1-0.2l0-0.1l0-0.2l0-0.1l0-0.1l0-0.2l0-0.1l0-0.2l0-0.1l0-0.2l-0.1-0.2l-0.1-0.2l-0.1-0.2l-0.1-0.2l0-0.1
			l-0.1-0.2l-0.1-0.2l-0.1-0.2l0-0.1l-0.1-0.2l0-0.2l0-0.1l-0.1-0.2l-0.1-0.2l0-0.1l-0.1-0.2l-0.1-0.2l-0.1-0.1l-0.2-0.2l-0.1-0.2
			l-0.1-0.1l-0.1-0.2l-0.1-0.1l-0.1-0.2l-0.1-0.2l-0.1-0.2l0-0.1l-0.1-0.2l-0.1-0.1l-0.1-0.1l-0.1-0.1l-0.2-0.1l-0.1,0l-0.1-0.1
			l-0.1-0.1l-0.1-0.1l-0.2-0.1l-0.2-0.1l-0.1-0.1l-0.1-0.1l-0.1,0l0,0l-0.2-0.1l-0.2-0.1l-0.1-0.1l-0.2-0.1l-0.1-0.1l-0.2-0.1
			l-0.2-0.1l-0.1-0.1l-0.1-0.1l-0.2-0.1l-0.2-0.1l-0.1,0l-0.1,0l-0.2-0.1l-0.2-0.1l-0.2-0.1l-0.1-0.1l-0.1,0l-0.1-0.1l-0.2-0.1
			l-0.2-0.1l-0.2,0l-0.2,0l-0.1,0l-0.2,0l-0.2,0l-0.1,0l-0.2,0l-0.1,0l-0.2,0l-0.1,0l-0.2,0l-0.2,0l-0.1,0l-0.2-0.1l-0.1-0.1l-0.1,0
			l-0.2-0.1l-0.1-0.1l-0.2-0.1l-0.1,0l-0.1,0l-0.2-0.1l-0.2,0l-0.1,0l-0.2,0l-0.1,0l-0.1,0l-0.2-0.1l-0.1,0l-0.1,0l-0.1,0l-0.1,0
			l-0.2,0l-0.1,0l-0.2,0l-0.1,0l-0.2,0l-0.1,0l-0.1,0l-0.2,0l-0.2,0l-0.1,0l-0.2,0l-0.1,0l-0.1,0l-0.2,0l-0.1,0l-0.1,0l-0.2,0
			l-0.1,0l-0.2,0l-0.1,0l-0.2,0l-0.2,0l-0.2,0l-0.1,0l-0.2,0l-0.1,0l-0.2,0l-0.1,0l-0.1,0l-0.2,0l-0.1,0l-0.2,0l-0.1,0l-0.1,0
			l-0.1,0l-0.1,0.1l-0.2,0.1l-0.1,0.1l-0.2,0.1l-0.1,0l-0.1,0.1l-0.1,0.1l-0.2,0.1l-0.1,0.1l-0.1,0l-0.2,0.1l0,0l0-0.3l0-0.1
			l-0.1-0.3l-0.1-0.1l-0.1-0.3l-0.1-0.3v-0.3v-0.3v-0.1l0-0.3l0-0.1l0-0.1l-0.1-0.3l0-0.1l-0.1-0.3l0-0.1l0-0.1l0-0.1l0-0.1V18
			l-0.2-0.1l0-0.1l-0.1-0.2l-0.1-0.3v-0.3v-0.1l0-0.3l0-0.1l0-0.3l-0.1-0.3l0-0.1l-0.1-0.3l0-0.1l0-0.1l0-0.3l0-0.3l-0.1-0.3
			l-0.1-0.3l-0.1-0.1l-0.1-0.3l-0.1-0.1l-0.2-0.3l-0.1-0.1l-0.2-0.3l-0.1-0.1l-0.2-0.3l-0.1-0.1l-0.2-0.2l-0.1-0.1l0-0.1l0-0.2
			l-0.2-0.1l0-0.1l-0.1-0.1l-0.2-0.3l-0.1-0.1l-0.2-0.3l-0.1-0.1l-0.2-0.2l-0.2-0.2l-0.2-0.2l-0.1-0.1l-0.2-0.2L260,10l-0.2-0.2
			l-0.2-0.2l-0.1-0.1l-0.2-0.2l-0.1-0.1L259,9l-0.1-0.1l-0.2-0.2l-0.1-0.1l-0.2-0.2l-0.1-0.1L258.1,8L258,7.9l-0.1-0.1l-0.1-0.1
			l-0.2-0.3l-0.1-0.1l-0.1-0.1L257.2,7l-0.1-0.1l-0.2-0.3l-0.1-0.1l-0.2-0.2l-0.1-0.1l-0.1-0.1L256.3,6L256,5.7l-0.2-0.3l-0.2-0.3
			l-0.1-0.1l-0.2-0.2l-0.1-0.1l-0.2-0.2l-0.3-0.2l-0.1-0.1l-0.3-0.2l-0.1-0.1L254,4l-0.3-0.1l-0.1,0l-0.4-0.2l-0.1-0.1L253,3.5
			l-0.3-0.1l-0.3-0.1l-0.3-0.1L252,3L251.7,3l-0.3-0.1l-0.3-0.1L251,2.7l-0.3,0l-0.1,0l-0.3-0.1l-0.1,0l-0.3-0.1l-0.1,0l-0.3,0
			l-0.1,0l-0.1,0L249,2.2l-0.3-0.1l-0.1,0L248.4,2l-0.1,0L248,1.9l-0.1-0.1l-0.3-0.1l-0.1,0l-0.3,0l-0.1,0l-0.3,0l-0.3,0l-0.1,0
			l-0.3,0l-0.1,0l-0.3-0.1l-0.1,0l-0.1,0l-0.3-0.1l-0.1,0l-0.3,0l-0.1,0l-0.3,0h-0.3h-0.1l-0.3,0l-0.1,0l-0.3,0l-0.3-0.1l-0.1,0
			l-0.3,0l-0.1,0l-0.1,0l-0.3,0l-0.1,0l-0.3,0h-0.1h-0.3h-0.1h-0.3h-0.1l-0.3,0l-0.1,0l-0.3,0l-0.1,0l-0.3,0l-0.1,0l-0.3,0l-0.3,0
			l-0.3,0l-0.3,0l-0.1,0l-0.3,0l-0.3,0.1l-0.3,0.1l-0.3,0.1h-0.3h-0.1h-0.3H236h-0.3h-0.1l-0.3,0l-0.3,0l-0.3,0.1L234.8,1l-0.3,0.1
			l-0.1,0l-0.1,0l-0.1,0l-0.3,0l-0.1,0l-0.3,0.1l-0.3,0.1l-0.1,0l-0.1,0l-0.3,0.1l-0.1,0l-0.3,0.1l-0.1,0.1L232,1.8l-0.1,0l-0.3,0.1
			l-0.1,0l-0.1,0l-0.1,0l-0.3,0.1l-0.3,0.1l-0.1,0.1l-0.1,0.1l-0.2,0.1l-0.1,0.1l0,0l0,0.1l-0.2,0l-0.2,0l-0.1,0l-0.3,0.1l-0.1,0.1
			L228.9,3l-0.1,0l-0.3,0.1l-0.3,0.1l-0.1,0l-0.3,0.1l-0.1,0.1l-0.1,0.1l-0.2,0.2l-0.2,0.1L227.1,4L227,4l-0.3,0.1l-0.3,0.1
			l-0.1,0.1l-0.1,0.1l-0.1,0.1L226,4.6l0,0.2h-0.5l-0.1,0.1l-0.1,0L225.2,5l-0.1,0l-0.3,0.1l-0.1,0.1l-0.3,0.2l-0.1,0.1L224,5.8
			l-0.1,0.1l-0.3,0.2l-0.1,0.1l-0.1,0.1l-0.1,0.1L223,6.6l-0.1,0.1l-0.1,0.1l-0.1,0.1L222.4,7l-0.1,0.1L222,7.3l-0.1,0.1l-0.1,0.1
			l-0.1,0.1l-0.2,0.2l-0.1,0.1L221.2,8l-0.1,0.2l0,0.1l0,0.3l-0.2,0l0,0l-0.1,0.1l-0.1,0.1L220.5,9l-0.1,0.1l-0.2,0.2L220,9.6
			l-0.1,0.1l-0.1,0.1l-0.1,0.1l-0.1,0.1l-0.2,0.3l-0.1,0.1l-0.2,0.3l-0.2,0.2l-0.1,0.1l-0.1,0.1l-0.1,0.1l-0.2,0.2l-0.2,0.3
			l-0.1,0.1l-0.2,0.3l-0.1,0.1l-0.2,0.3l-0.2,0.3l-0.1,0.1l-0.1,0.1l-0.2,0.3l-0.1,0.1l-0.1,0.1l-0.2,0.3l-0.3,0.4l-0.2,0.3
			l-0.1,0.1l-0.2,0.3l-0.1,0.1l-0.2,0.3l-0.2,0.3l-0.1,0.3l0,0.1l0,0.2v0.2l-0.1,0l0,0l-0.1,0.1l0,0.1l-0.1,0.2l0,0.1l-0.1,0.3
			l-0.1,0.1l-0.1,0.3l0,0.1v0.2V18l-0.2,0l0,0l-0.1,0.1l-0.1,0.2l-0.2,0.3l-0.1,0.3L214,19l-0.1,0.3l-0.1,0.1l-0.1,0.3l-0.1,0.3v0.3
			l0,0.1l0,0.3l-0.1,0.3l-0.1,0.1l-0.1,0.3l0,0.1l-0.1,0.3l0,0.1l-0.1,0.3L213,22l-0.1,0.3l0,0.1l-0.1,0.3l0,0.3l0,0.3l0,0.1
			l-0.1,0.3l-0.1,0.3l0,0.1l0,0.1l0,0.3v0.3v0.3V25l0,0.3l0,0.1l0,0.3l-0.1,0.3l0,0.3l0,0.1l0,0.1l0,0.1l-0.1,0.3l0,0.1l0,0.1v0.3
			v0.3v0.3v0.1l0.1,0.3l0.1,0.3l0,0.1l0,0.3l0,0.3v0.1v0.3v0.8v0.3v0.3v0.1l0,0.3l0,0.1l0,0.3l0,0.1l0,0.3V32v0.4v0.1v0.1v0.3l0,0.1
			l0,0.1l0.1,0.3l0.1,0.3l0.1,0.1l0.1,0.3l0,0.1l0,0.3v0.1l0.1,0.3l0.1,0.3l0.1,0.1l0.1,0.3l0,0.1l0.1,0.3l0.1,0.1l0.1,0.1l0.1,0.3
			l0.1,0.3l0,0.1l0.1,0.1l0.1,0.3l0.1,0.3l0,0.1l0.1,0.1l0.2,0.3l0.1,0.1l0.1,0.1l0.1,0.3l0,0.1l0.1,0.3l0.1,0.1l0.2,0.3l0.2,0.3
			l0.1,0.1l0.2,0.3l0.1,0.1l0.1,0.1l0.2,0.3l0.1,0.1l0.2,0.2l0.1,0.1l0.1,0.1l0.1,0.1l0.1,0.1l0.2,0.3l0.1,0.1l0.1,0.1l0.1,0.1
			l0.1,0.1l0.2,0.2l0.1,0.1l0.1,0.1l0.2,0.2l0.1,0.1l0.1,0.1l0.1,0.1l0.2,0.2l0.1,0.1l0.1,0.1l0.1,0.1l0.3,0.3l0.1,0.1l0.2,0.3
			L219,44l0.1,0.1l0.2,0.2l0.1,0.1l0.2,0.2l0.1,0.1l0.2,0.2l0.1,0.1l0.2,0.3l0.1,0.1l0.1,0.1l0.3,0.2l0.1,0.1l0.1,0.1l0.1,0.1
			l0.1,0.1l0.1,0.1l0.1,0.1l0.3,0.2l0.3,0.2l0.3,0.2l0.3,0.2l0.1,0.1l0.3,0.2l0.3,0.2l0.3,0.2l0.3,0.2l0.3,0.1L224,48l0.3,0.1
			l0.3,0.2l0.1,0.1l0.3,0.1l0.3,0.1l0.1,0.1l0.3,0.1l0.3,0.1L226,49l0.3,0.1c0.2,0.1,0.5,0.1,0.7,0.1c0.4,0.1,0.7,0.2,1,0.4
			c4.5,1.9,9.3,2.1,14,1.3c0.2,0,0.4-0.1,0.6-0.1l0.3,0l0.1,0l0.3,0l0.3,0h0.1l0.3,0l0.3,0l0.1,0l0.3,0l0.1,0l0.1,0l0.3-0.1l0.3-0.1
			l0.1,0l0.1,0l0.3,0h0.3l0.1,0c1.1-0.3,2.2-0.9,3.2-1.5c0.6-0.3,1.2-0.8,1.8-1c0.4-0.1,0.7-0.3,1-0.5l0.3-0.1l0.1-0.1l0.3-0.1
			l0.1-0.1L253,47l0.2-0.1l0.1-0.1l0.1-0.1l0-0.2h0.2h0.2l0.3-0.1l0.1-0.1l0.3-0.2l0.2-0.2l0.1-0.1l0.1-0.1l0.1-0.1l0.2-0.2l0.3-0.2
			l0.1-0.1l0.3-0.2l0.2-0.2l0.2-0.2l0.1-0.1l0.2-0.2l0.2-0.2l0.2-0.3l0.1-0.1l0.1-0.1l0.1-0.1l0.1-0.1l0.1-0.1l0.2-0.1l0-0.2l0-0.1
			l0.1-0.1l0.1-0.1l0.2-0.3l0.1-0.1l0.2-0.3l0.1-0.1l0.1-0.1l0.1-0.1l0.2-0.1v-0.2l0.1-0.2L259,41l0,0l0,0l0.1,0.1l0,0.1l0.1,0.2
			l0.1,0.2l0.1,0.2l0.1,0.2l0.1,0.2l0,0.1l0.1,0.2l0.1,0.1l0.1,0.2l0.2,0.2l0.1,0.1l0.1,0.2l0.1,0.1l0.1,0.2l0.1,0.1l0.2,0.1
			l0.1,0.1l0.1,0.1l0.2,0.2l0.1,0.1l0.1,0.1l0.2,0.1l0.1,0.1l0.1,0.1l0.1,0.1l0.1,0.1l0.2,0.2l0.1,0.1l0.2,0.1l0.1,0.1l0.1,0.1
			l0.1,0.1l0.1,0.1l0.2,0.1l0.1,0.1l0.1,0.1l0.2,0.1l0.1,0l0.1,0.1l0.2,0.1l0.1,0l0.2,0.1l0.2,0.1l0.1,0l0.2,0.1l0.1,0l0.2,0.1
			l0.1,0l0.2,0.1l0.1,0l0.2,0l0.1,0l0.1,0l0.2,0l0.1,0l0.1,0l0.2,0l0.2,0l0.1,0l0.2,0l0.1,0l0.1,0l0.2,0.1l0.2,0.1l0.1,0l0.1,0
			l0.2,0l0.1,0l0.2,0l0.2,0l0.1,0l0.2,0l0.1,0l0.2,0l0.1,0l0.1,0l0.2,0l0.1,0l0.2,0l0.1,0l0.1,0l0.2,0l0.2,0l0.2,0l0.1,0l0.2,0
			l0.2,0l0.2,0l0.1,0l0.1,0l0.2,0l0.2,0l0.1,0l0.1,0l0.2,0l0.1,0l0.1,0l0.2,0l0.1,0l0.2,0l0.1,0l0.1,0l0.2,0l0.1,0l0.1,0l0.2,0
			l0.2,0l0.1,0l0.2,0l0.1,0l0.2,0l0.1,0l0.1,0l0.2,0l0.2,0l0.1,0l0.2,0l0.1,0l0.2,0l0.2,0l0.2-0.1l0.1,0l0.2-0.1l0.1,0l0.2-0.1
			l0.1,0l0.2-0.1l0.1,0l0.2-0.1l0.2-0.1l0.2-0.1l0.1-0.1l0.2-0.1l0.1-0.1l0.1-0.1c0,0,0.1-0.1,0.1-0.1c0.4-0.3,0.9-0.5,1.3-0.8
			c0.1-0.1,0.2-0.1,0.3-0.2c0.1-0.1,0.2-0.3,0.3-0.4c0.1-0.1,0.2-0.2,0.3-0.3l0.2-0.3l0.1-0.1l0.1-0.2l0.1-0.1l0.1-0.2l0.1-0.1
			l0.1-0.2l0.1-0.1l0.1-0.2l0-0.1l0.1-0.1l0.1-0.2l0.1-0.2l0.1-0.2l0.1-0.2l0.1-0.2l0-0.1l0-0.1l0.1-0.2l0-0.1l0.1-0.2l0-0.1l0-0.1
			l0.1-0.2l0.1-0.2l0.1-0.2l0-0.1l0.1-0.2l0.1-0.2l0-0.1l0.1-0.2l0-0.2l0.1-0.2l0-0.2l0-0.1l0-0.1l0-0.2l0-0.1l0-0.2l0-0.1l0-0.2
			l0-0.1l0-0.1l0-0.2l0-0.2l0-0.1l0-0.1l0-0.2l0-0.1l0-0.2l0-0.1l0-0.2l0-0.1l0-0.2l0-0.2l0-0.1l0-0.1l0-0.2L282.2,35.5z
			 M257.5,36.6l0,0.2l0,0.2l0,0.1l-0.1,0.3l-0.1,0.1l-0.1,0.3l-0.1,0.1l0,0.1l0,0.1l-0.1,0.3l0,0.1l0,0.1l0,0.3V39v0.1v0.3l-0.2,0
			l-0.1,0.1l-0.1,0.1l-0.1,0.2l-0.1,0.1l-0.2,0.3l-0.1,0.3l-0.2,0.2l-0.1,0.1l-0.1,0.1l-0.1,0.1l-0.2,0.2l-0.1,0.1l-0.3,0.2
			l-0.1,0.1l-0.3,0.3l-0.4,0.4l-0.3,0.3l-0.1,0.1l-0.3,0.3l-0.1,0.1l-0.1,0.1l-0.2,0.2l-0.2,0.2l-0.1,0.1l-0.3,0.2l-0.3,0.2L252,44
			l-0.1,0.1l-0.1,0.1l-0.3,0.1l-0.3,0.2l-0.1,0.1l-0.1,0.1l-0.3,0.1l-0.1,0.1l-0.1,0.1l-0.1,0.1l-0.3,0.2l-0.3,0.2l-0.1,0.1
			l-0.1,0.1l-0.3,0.2l-0.3,0.1l-0.1,0.1l-0.3,0.1l-0.1,0.1l-0.1,0.1l-0.3,0.1l-0.1,0l-0.3,0.1l-0.1,0.1l-0.3,0.1l-0.3,0.1l-0.1,0
			l-0.3,0.1l-0.1,0.1l-0.3,0.1l-0.1,0l-0.3,0.1l-0.3,0.1l-0.1,0.1l-0.3,0.1l-0.3,0.1l-0.3,0.1l-0.1,0l-0.3,0.1l-0.3,0.1l-0.3,0.1
			l-0.1,0l-0.3,0.1l-0.1,0l-0.3,0.1l-0.3,0.1l-0.1,0l-0.1,0l-0.3,0h-0.3c-0.5,0-0.9,0.2-1.3,0.2c-0.5,0-1.1,0-1.6,0
			c-0.5,0-1,0-1.5,0c-0.7,0-1.4-0.2-2-0.2h-0.4h-1.1h-0.3h-0.1h-0.3h-0.1l-0.3,0l-0.1,0l-0.1,0l-0.3,0l-0.1,0l-0.3-0.1l-0.3-0.1
			l-0.1,0l-0.3,0l-0.1,0l-0.3,0h-0.1l-0.3-0.1l-0.1,0l-0.1,0l-0.1-0.1l-0.3-0.1l-0.1,0l-0.3-0.1l-0.3-0.1l-0.3-0.1l-0.3-0.1
			l-0.1-0.1l-0.1,0l-0.3-0.1l-0.1-0.1l-0.3-0.1l-0.1-0.1l-0.3-0.1l-0.3-0.2l-0.1-0.1l-0.3-0.1l-0.1-0.1l-0.3-0.1l-0.3-0.1l-0.3-0.1
			l-0.1-0.1l-0.3-0.2l-0.1-0.1l-0.3-0.2l-0.1-0.1l-0.1-0.1l-0.1-0.1l-0.3-0.2l-0.3-0.2l-0.3-0.2l-0.1-0.1l-0.3-0.2l-0.1-0.1
			l-0.2-0.2l-0.1-0.1l-0.2-0.2l-0.1-0.1l-0.3-0.2l-0.1-0.1l-0.3-0.2l-0.1-0.1l-0.2-0.2l-0.1-0.1l-0.1-0.1l-0.2-0.2l-0.1-0.1
			l-0.3-0.2l-0.3-0.2l-0.1-0.1l-0.1-0.1l-0.2-0.2l-0.1-0.1l-0.1-0.1l-0.1-0.1l-0.1-0.1l-0.2-0.2l-0.1-0.1l-0.2-0.3l-0.2-0.3
			l-0.2-0.3l-0.1-0.1l-0.2-0.2l-0.1-0.1l-0.2-0.2l-0.1-0.1l-0.2-0.3l-0.2-0.3l-0.1-0.1l-0.2-0.2l-0.1-0.1l-0.1-0.1l-0.2-0.2
			l-0.1-0.1l-0.1-0.1l-0.2-0.3l-0.2-0.3l-0.2-0.3l-0.1-0.3l-0.1-0.1l-0.1-0.3l-0.1-0.1l-0.1-0.3l-0.1-0.3l-0.1-0.3l-0.1-0.1
			l-0.1-0.3l-0.1-0.3l0-0.1l0-0.1l-0.1-0.2l-0.1-0.1l-0.2,0v-0.2l0-0.2l0-0.1l0-0.1l-0.1-0.3l-0.1-0.1l-0.1-0.3l0-0.1l0-0.3l0-0.1
			l0-0.1l0-0.1l0-0.3l0-0.1l0-0.3l0-0.3l0-0.1l0-0.3l0-0.1l0-0.3l0-0.3v-0.1V30v-0.3v-0.4v-0.6v-0.3v-0.1v-0.1l0-0.3l0-0.1l0-0.3
			l0-0.1l0-0.3v-0.3v-0.1v-0.1l0-0.3l0-0.1l0-0.1l0-0.3l0-0.1l0-0.1l0-0.3l0-0.1l0-0.1v-0.3v-0.1v-0.3l0-0.1l0-0.1l0.1-0.3l0.1-0.1
			l0-0.1l0.1-0.3l0-0.3l0-0.1l0-0.3l0-0.1l0.1-0.3l0.1-0.1l0-0.1l0-0.1l0-0.1l0-0.3l0-0.1l0-0.1l0-0.1l0.1-0.3l0.1-0.1l0-0.1
			l0.1-0.3l0-0.1l0.1-0.3l0.1-0.1l0.1-0.3l0-0.1l0-0.1l0.1-0.3l0.1-0.3l0.1-0.3l0.1-0.3l0.1-0.1l0.1-0.3l0-0.1l0.1-0.3l0-0.1
			l0.1-0.1l0-0.1l0.1-0.1v-0.6l0.3-0.1h0.1l0-0.2l0.1-0.2l0.1-0.2l0.2-0.2l0.1-0.1l0.2-0.3l0.1-0.1l0.2-0.3l0.2-0.3l0.1-0.1l0.1-0.1
			l0.2-0.3l0.1-0.1l0.2-0.3l0.1-0.1l0.1-0.1l0.2-0.3l0.2-0.2l0.1-0.1l0.1-0.1l0.1-0.1l0.1-0.1l0.2-0.2l0.2-0.3l0.2-0.3l0.1-0.1
			l0.1-0.1l0.1-0.1l0.2-0.3l0.1-0.1l0.2-0.3l0.1-0.1l0.1-0.1l0.2-0.2l0.1-0.1l0.1-0.1l0.1-0.1l0.2-0.2l0.1-0.1l0.3-0.2l0.1-0.1
			l0.3-0.2l0.1-0.1l0.1-0.1l0.1-0.1l0.2-0.2l0.1-0.1l0.1-0.1l0-0.1l0-0.2h0.2l0.2-0.1l0.3-0.2l0.1-0.1l0.3-0.2l0.3-0.2l0.1-0.1
			l0.1-0.1l0.1-0.1l0.1-0.1l0.3-0.1l0.3-0.2l0.1-0.1l0.3-0.2l0.2-0.1l0.2-0.1l0.2,0l0.1-0.2l0.1,0l0.1-0.1l0.3-0.2l0.3-0.2l0.1-0.1
			l0.1-0.1l0.1-0.1l0.3-0.2l0.1-0.1l0.1-0.1l0.1-0.1l0.1-0.1l0.3-0.1l0.1,0l0.3-0.1l0.1-0.1l0.1,0l0.3-0.1l0.3-0.1l0.1,0l0.3-0.1
			l0.1-0.1l0.3-0.1l0.1,0l0.3-0.1l0.1-0.1l0.1-0.1l0.3-0.1l0.3-0.1l0.1,0l0.1,0l0.3-0.1l0.3-0.1l0.1,0l0.3-0.1l0.3,0l0.3,0h0.3h0.1
			h0.3h0.1l0.2,0l0.1,0l0.2,0l0.1,0l0.3-0.1l0.1,0l0.3,0l0.1,0l0.3,0l0.1,0l0.1,0l0.3,0h0.1l0.3,0l0.1,0h0.3l0.1,0l0.3,0l0.3,0h0.3
			h0.4h0.3h0.1l0.3,0l0.1,0l0.3,0l0.1,0l0.1,0l0.3,0l0.1,0l0.1,0l0.3,0l0.3,0l0.1,0l0.3,0l0.3,0h0.1h0.3h0.1h0.3h0.1l0.3,0l0.1,0
			l0.1,0l0.1,0l0.3,0.1l0.1,0.1l0.3,0.1l0.1,0l0.3,0.1l0.3,0.1l0.1,0.1l0.3,0.1l0.3,0.1l0.1,0l0.3,0l0.3,0l0.1,0l0.3,0l0.1,0l0.1,0
			l0.3,0.1l0.1,0l0.1,0h0.1l0.3,0l0.1,0l0.3,0l0.1,0l0.2,0h0.1h0.3v0.3l0.2,0l0.2,0l0.1,0l0.3,0.1l0.3,0.1l0.1,0.1l0.3,0.2l0.1,0.1
			l0.3,0.2l0.3,0.2l0.1,0.1l0.3,0.3l0.3,0.2l0.1,0.1l0.2,0.2l0.1,0.1l0.1,0.1l0.1,0l0.2,0.1v0.4v0.1V8v0.3l0.1,0.3l0.1,0.3l0.1,0.1
			l0.1,0.3l0,0.1l0.1,0.3l0.2,0.3l0.1,0.1l0.3,0.2l0.3,0.1l0.3,0.1l0.1,0.1l0.3,0.2l0.3,0.1l0.3,0.2l0.1,0.1l0.1,0.1l0.3,0.2
			l0.1,0.1l0.2,0.2l0.2,0.1l0.2,0.1h0.2l0,0.2l0,0.1l0.1,0.1l0.2,0.2l0.1,0.1l0.1,0.1l0.1,0.1l0.2,0.2L258,13l0.1,0.1l0.1,0.1
			l0.1,0.1l0.2,0.3l0.2,0.3l0.2,0.3l0.2,0.3l0.1,0.1l0.2,0.3l0.2,0.3l0.1,0.3l0,0.1l0.1,0.1l0,0l0.1,0v0.2l0,0.2l0,0.1l0,0.1l0,0.3
			l0,0.1l0.1,0.3l0.1,0.1l0.1,0.3l0,0.1l0,0.1l0.1,0.3l0,0.1l0.1,0.3l0.1,0.1l0.1,0.3l0,0.1l0,0.1V19l0.1,0.3l0,0.1l0.1,0.3l0.1,0.3
			l0,0.1l0,0.1l0.1,0.3l0,0.1l0,0.3l0,0.3l0.1,0.3l0,0.1l0.1,0.3l0,0.3l0,0.1l0,0.3v0.1v0.4v0.1v0.3v0.1l0,0.3l0,0.3l0,0.1l-0.2,0.1
			l-0.1,0.1l-0.1,0.1l-0.2,0.1l-0.1,0.1l-0.1,0.2l-0.1,0.1l-0.1,0.2l-0.1,0.2l-0.1,0.2l-0.1,0.2l0,0.1l-0.1,0.2l-0.1,0.2l0,0.1
			l-0.1,0.2l-0.1,0.2l-0.1,0.2l-0.1,0.2l-0.1,0.2l0,0.1l0,0.1l-0.1,0.2l-0.1,0.2l-0.1,0.1l-0.1,0.2l0,0.1l-0.1,0.2l0,0.1l-0.1,0.2
			l0,0.1l-0.1,0.2l-0.1,0.1l-0.1,0.2l0,0.1l-0.1,0.2l-0.1,0.2l0,0.1l0,0.1l0,0.1l0,0.1l0,0.1l0,0.1l-0.1,0.2l-0.1,0.2l0,0.1l0,0.1
			l0,0.1l-0.1,0.2l0,0.1l-0.1,0.2l0,0.1l0,0.1l-0.1,0.2l0,0.1l0,0.1l0,0.2l0,0.1l0,0.2l0,0.2l0,0.2l0,0.2l0,0.1l0,0.2l0,0.1l0,0.2
			l0,0.2l0,0.1l0,0.2l0,0.1l0,0.2l0,0.1l0,0.2l0,0.1l0,0.2l0,0.2l0,0.1l0,0.1l0,0.2l0,0.1l0,0.2l0,0.1l0,0.2l0,0.1l0,0.3l0,0.1
			l0,0.2l0,0.2l0,0.2l0,0.1l0,0.1l0,0.1L257.5,36.6L257.5,36.6L257.5,36.6L257.5,36.6z M279.4,33.3l0,0.2l0,0.2l0,0.2l0,0.1l0,0.2
			l0,0.1l0,0.2l0,0.1l0,0.2l0,0.2l0,0.2l0,0.1l0,0.1l0,0.2l0,0.2l0,0.1l0,0.2l0,0.2l0,0.1l0,0.2l0,0.1l0,0.2l0,0.1l0,0.2l0,0.2
			l0,0.2l0,0.1l0,0.1l0,0.2l0,0.1l0,0.2l0,0.1l0,0.2l0,0.1l0,0.2l0,0.1l0,0.1l-0.1,0.2l0,0.1l-0.1,0.2l0,0.1l-0.1,0.2l0,0.1
			l-0.1,0.2l0,0.1l-0.1,0.2l0,0.1l-0.1,0.2l0,0.1l-0.1,0.2l-0.1,0.2l-0.1,0.2l-0.1,0.2l0,0.1l-0.1,0.1l-0.1,0.1l-0.1,0.1l-0.1,0.1
			l-0.1,0.1l-0.1,0.1l-0.1,0.1l-0.2,0.1l-0.1,0.1l-0.1,0.2l-0.1,0.1l-0.2,0.1l-0.1,0.1l-0.2,0.1l-0.2,0.2l-0.1,0.1l-0.2,0.1
			l-0.1,0.1l-0.1,0.1l-0.2,0.1l-0.2,0.1l-0.2,0.1l-0.2,0.1l-0.2,0.1l-0.1,0l-0.2,0.1l-0.1,0l-0.1,0l-0.1,0l-0.2,0.1l-0.1,0l-0.2,0
			l-0.1,0l-0.2,0.1l-0.2,0.1l-0.2,0.1l-0.1,0l-0.1,0l-0.1,0l-0.2,0.1l-0.2,0.1l-0.1,0l-0.2,0l-0.1,0l-0.2,0l-0.1,0l-0.2,0l-0.2,0
			l-0.2,0l-0.2,0l-0.1,0l-0.2,0l-0.1,0l-0.2,0l-0.1,0l-0.2,0l-0.1,0l-0.2,0l-0.1,0l-0.1,0l-0.2,0l-0.5,0l-0.2,0l-0.1,0l-0.2,0
			l-0.2,0l-0.1,0l-0.1,0l-0.1,0l-0.2,0l-0.2,0l-0.1,0l-0.2,0l-0.1,0l-0.2,0l-0.1,0l-0.2-0.1l-0.1-0.1l-0.2-0.1l-0.1,0l-0.1,0l-0.2,0
			l-0.1,0l-0.2,0l-0.1,0l-0.1,0l-0.2-0.1l-0.1,0l-0.1,0l-0.2-0.1l-0.2-0.1l-0.2-0.1l-0.1,0l-0.1-0.1l-0.1-0.1l-0.2-0.1l-0.1,0
			l-0.2-0.1l-0.2-0.1l-0.1-0.1l-0.2-0.1l-0.1-0.1l-0.2-0.1l-0.1-0.1l-0.1-0.1l-0.1-0.2l-0.1-0.1l-0.2-0.1l-0.1-0.1l-0.2-0.2
			l-0.1-0.1l-0.1-0.1l-0.2-0.1l-0.1-0.1l-0.1-0.2l-0.1-0.2l-0.1-0.1l-0.1-0.1l-0.1-0.2l-0.2-0.2l-0.1-0.2l-0.1-0.1l-0.1-0.1
			l-0.1-0.2l-0.1-0.2l-0.1-0.2l-0.1-0.2L261,39l0-0.1l-0.1-0.2l-0.1-0.2l0-0.1l-0.1-0.2l-0.1-0.2l0-0.1l0-0.1l0-0.2l0-0.1l0-0.2
			l0-0.2l-0.1-0.2l0-0.1l0-0.1l0-0.2l0-0.1l0-0.1l0-0.2l0-0.1l0-0.1l0-0.1l0-0.2l0-0.2l0-0.1l0-0.2l0-0.2l0-0.4l0-0.2l0-0.1l0-0.1
			l0-0.2l0-0.1l0-0.2l0-0.1l0-0.2l0-0.2l0-0.6l0.1-1l0-0.3l0-0.1l0-0.2l0-0.1l0-0.2l0-0.1l0-0.2l0-0.2l0-0.2l0-0.1l0-0.1l0.1-0.2
			l0.1-0.2l0.1-0.2l0-0.1l0-0.1l0.1-0.2l0-0.1l0.1-0.2l0-0.1l0.1-0.2l0.1-0.1l0.1-0.2l0-0.1l0.1-0.2l0-0.1l0-0.1l0.1-0.2l0.1-0.1
			l0-0.1l0.1-0.1l0-0.1l0-0.1l0.1-0.2l0-0.1l0-0.1l0.1-0.1l0-0.1l0.1-0.2l0.1-0.2l0.1-0.2l0.1-0.2l0.1-0.2l0.1-0.1l0.1-0.2l0.1-0.1
			l0.2-0.2l0.2-0.2l0.1-0.1l0.1-0.1l0.2-0.2l0.1-0.1c0,0,0.2-0.1,0.2-0.1c0.2-0.2,0.3-0.2,0.4-0.4c0,0,0.1-0.1,0.1-0.1
			c0.3-0.2,0.6-0.4,1-0.6c0.3-0.2,0.6-0.3,0.9-0.5l0.2-0.1l0.1,0l0.1,0l0.2-0.1L267,23l0.2-0.1l0.1,0l0.2-0.1l0.1,0l0.2,0l0.1,0
			l0.2,0l0.1,0l0.2,0l0.1,0l0.2,0l0.1,0l0.1,0l0.2,0l0.5,0l0.3,0l0.2,0l0.2,0l0.1,0l0.2,0l0.1,0l0.1,0l0.2,0.1l0.1,0l0.2,0.1
			l0.1,0.1l0.1,0l0.1,0l0.2,0.1l0.1,0l0.2,0.1l0.2,0.1l0.1,0.1l0.1,0l0.1,0l0.1,0l0.1,0l0.1,0l0.2,0l0.2,0.1l0.2,0.1l0.1,0l0.1,0
			l0.2,0.1l0.2,0.1l0.2,0.1l0.1,0l0.1,0.1l0.1,0.1l0.2,0.1l0.2,0.1l0.1,0.1l0.2,0.1l0.2,0.1l0.1,0.1l0.2,0.1l0.2,0.1l0.2,0.1l0.1,0
			l0.2,0.1l0.1,0.1l0.2,0.1l0.2,0.1l0.2,0.1l0.1,0.1l0.2,0.1l0.1,0.1l0.1,0.1l0.1,0.1l0.1,0.2l0.1,0.1l0.1,0.2l0.1,0.1l0,0l0.1,0.1
			l0,0.1l0,0.1l0,0.1l0.1,0.2l0.1,0.1l0.1,0.2l0.1,0.1l0.1,0.2l0.1,0.1l0.1,0.2l0,0.1l0.1,0.2l0.1,0.2l0.1,0.2l0,0.1l0.1,0.2
			l0.1,0.2l0.1,0.1l0.1,0.2l0,0.1l0.1,0.2l0,0.1l0,0.1l0.1,0.2l0,0.1l0,0.1l0,0.2l0,0.1l0,0.1l0.2,0l0,0.1l0,0.1l0,0.1l0,0.2l0,0.1
			l0,0.2l0,0.1l0,0.1l0,0.2l0,0.2l0,0.1l0,0.2l0,0.1l0,0.2l0,0.1L279.4,33.3L279.4,33.3z"/>
		<polygon id="XMLID_24_" points="277.7,34 277.6,33.9 277.6,33.8 277.5,33.7 277.4,33.7 277.3,33.5 277.1,33.4 277,33.4 
			276.9,33.3 276.8,33.2 276.7,33.2 276.5,33.2 276.4,33.1 276.2,33.1 276.1,33.1 276,33.1 275.8,33.1 275.7,33.1 275.5,33.2 
			275.4,33.2 275.3,33.2 275.2,33.3 275,33.3 274.8,33.4 274.7,33.5 274.6,33.6 274.6,33.8 274.5,34 274.5,34 274.5,34.1 
			274.5,34.3 274.5,34.4 274.4,34.6 274.4,34.7 274.4,34.9 274.4,34.9 274.4,35 274.4,35.2 274.5,35.3 274.6,35.5 274.7,35.5 
			274.8,35.6 274.9,35.8 275.1,35.9 275.2,35.9 275.4,36 275.6,36 275.6,36.1 275.7,36.1 275.9,36.1 276.1,36.2 276.3,36.1 
			276.4,36.1 276.6,36.1 276.7,36 276.8,36 277,35.9 277.1,35.9 277.2,35.7 277.3,35.7 277.4,35.6 277.5,35.5 277.6,35.3 
			277.7,35.1 277.7,35 277.7,34.8 277.7,34.7 277.8,34.6 277.8,34.4 277.8,34.2 		"/>
		<polygon id="XMLID_23_" points="265.8,35 265.8,34.8 265.8,34.7 265.7,34.6 265.6,34.4 265.6,34.3 265.4,34.1 265.2,34 265.1,34 
			265,33.9 264.9,33.8 264.8,33.8 264.6,33.7 264.4,33.7 264.3,33.7 264.2,33.6 264.2,33.6 264,33.6 263.8,33.6 263.7,33.6 
			263.5,33.6 263.3,33.7 263.2,33.7 263.1,33.8 263,34 262.8,34.2 262.7,34.3 262.7,34.4 262.6,34.6 262.5,34.8 262.4,34.9 
			262.3,35 262.3,35.1 262.2,35.2 262.3,35.4 262.3,35.5 262.3,35.7 262.4,35.8 262.5,35.9 262.6,36.1 262.6,36.2 262.7,36.3 
			262.8,36.5 263,36.6 263.2,36.7 263.3,36.7 263.5,36.8 263.6,36.8 263.7,36.9 263.8,36.9 264,36.9 264.2,36.9 264.3,36.9 
			264.4,36.9 264.5,36.8 264.7,36.7 264.8,36.7 264.9,36.6 265,36.5 265.2,36.4 265.3,36.4 265.5,36.2 265.5,36.1 265.6,35.9 
			265.7,35.8 265.8,35.7 265.8,35.5 265.8,35.3 265.8,35.1 		"/>
		<polygon id="XMLID_22_" points="271.3,39.7 271.2,39.5 271.1,39.3 271,39.2 270.9,39.1 270.9,39 270.7,38.9 270.6,38.8 
			270.4,38.7 270.3,38.7 270.2,38.6 270,38.5 269.8,38.5 269.6,38.5 269.4,38.5 269.3,38.5 269.3,38.6 269.1,38.6 268.9,38.7 
			268.7,38.8 268.6,38.8 268.5,38.9 268.4,39.1 268.3,39.1 268.2,39.3 268,39.4 267.9,39.5 267.9,39.6 267.9,39.7 268,39.9 
			267.9,40.1 268,40.3 268,40.5 268,40.6 268,40.7 268.1,40.8 268.1,40.9 268.2,41 268.4,41.2 268.5,41.3 268.6,41.4 268.8,41.5 
			268.8,41.5 268.9,41.5 269.1,41.6 269.3,41.6 269.4,41.6 269.5,41.6 269.7,41.6 269.8,41.6 269.8,41.5 269.9,41.5 270.1,41.5 
			270.2,41.5 270.4,41.4 270.5,41.4 270.6,41.3 270.8,41.2 271,41 271,41 271.1,40.8 271.2,40.6 271.3,40.5 271.3,40.4 271.3,40.3 
			271.3,40.2 271.4,40.1 271.4,39.9 271.3,39.8 		"/>
		<polygon id="XMLID_21_" points="248.2,23.7 248.1,23.4 248,23.1 247.9,22.9 247.9,22.9 247.8,22.6 247.6,22.5 247.5,22.4 
			247.2,22.3 246.9,22.2 246.7,22.2 246.4,22.2 246.3,22.2 246,22.2 245.8,22.2 245.6,22.2 245.3,22.4 245.2,22.5 245,22.6 
			245,22.7 244.7,22.8 244.7,23 244.7,23.1 244.6,23.2 244.6,23.4 244.5,23.7 244.4,23.9 244.4,24.2 244.3,24.3 244.3,24.6 
			244.3,24.9 244.3,25.2 244.3,25.6 244.3,25.9 244.4,26 244.5,26.3 244.6,26.4 244.7,26.6 245,26.6 245,26.7 245.2,26.7 
			245.3,26.7 245.6,26.8 246,26.8 246.3,26.7 246.4,26.7 246.7,26.6 246.9,26.6 247,26.5 247.3,26.3 247.5,26.2 247.6,26.1 
			247.8,26 247.9,25.8 247.9,25.7 248,25.4 248.1,25.2 248.1,24.9 248.2,24.8 248.2,24.6 248.3,24.3 248.3,24 248.2,23.9 		"/>
		<polygon id="XMLID_20_" points="232.7,23.1 232.6,22.9 232.4,22.6 232.3,22.4 232.1,22 231.3,22 230.9,22 230.6,22 230.4,22 
			230.3,22.1 229.9,22.3 229.6,22.6 229.5,22.7 229.3,23.1 229.2,23.3 229.1,23.4 229,23.8 229,24.1 229,24.3 229,24.7 229,24.8 
			229.1,25.2 229.1,25.4 229.2,25.6 229.2,25.7 229.4,26.1 229.4,26.3 229.5,26.4 229.8,26.6 229.9,26.7 230.1,26.7 230.4,26.8 
			230.8,26.8 230.9,26.8 231.1,26.8 231.4,26.7 231.6,26.7 231.7,26.6 231.8,26.6 232.1,26.6 232.3,26.3 232.5,25.9 232.6,25.7 
			232.7,25.4 232.7,25.2 232.7,24.8 232.7,24.5 232.7,24.1 232.7,24 232.7,23.6 232.7,23.4 		"/>
		<path id="XMLID_19_" d="M248.3,35.8l-0.1-0.3l-0.1-0.1l-0.2-0.2l-0.1-0.1l-0.2-0.2l-0.1-0.1l-0.3-0.1l-0.1-0.1l-0.3,0h-0.3l-0.3,0
			l-0.3,0.1l-0.2,0.1l-0.2,0.2l-0.1,0.1l-0.1,0.1l-0.2,0.2l-0.2,0.2l-0.1,0.3l-0.1,0.1l0,0.1l-0.1,0.1l-0.1,0.1l-0.1,0.3l-0.1,0.1
			l0,0.1l-0.2,0.1l0,0.2l-0.1,0.2l-0.1,0.1l-0.1,0.1l-0.2,0.3l-0.2,0.3l-0.2,0.3l-0.2,0.3l-0.1,0.1l-0.2,0.2l-0.2,0.2l-0.1,0.1
			l-0.1,0.1l-0.3,0.2l-0.3,0.1l-0.1,0.1l-0.3,0.1l-0.2,0.1l-0.2,0v0.1l-0.1,0.3h-0.2l-0.2,0l-0.2,0.1l-0.1,0.1l-0.1,0.1l0,0.2H240
			l-0.2,0l-0.2,0.1l-0.1,0.1l-0.3,0.1l-0.3,0.1l-0.1,0l-0.3,0l-0.1,0l-0.3,0h-0.1l-0.3,0l-0.3,0l-0.1,0l-0.1,0l-0.4,0.1l-0.1,0
			l-0.3,0l-0.1,0l-0.3-0.1l-0.1,0l-0.1,0l-0.1,0l-0.3-0.1l-0.1,0l-0.1,0l-0.3-0.1l-0.1,0l-0.3-0.1l-0.1-0.1l-0.3-0.2l-0.3-0.2
			l-0.3-0.2l-0.1-0.1l-0.1-0.1l-0.2-0.2l-0.2-0.1l-0.2,0l0-0.2l0-0.1l-0.1-0.1l-0.2-0.2l-0.1-0.1l-0.2-0.2l-0.1-0.1l-0.1-0.1
			l-0.2-0.2l-0.2-0.2l-0.1-0.1l-0.1-0.1l-0.2-0.3l-0.1-0.1l-0.1-0.1l-0.2-0.2l-0.1-0.1l-0.1-0.2l0-0.1l-0.1-0.3l-0.1-0.1l-0.1-0.3
			l-0.1-0.3l-0.1-0.3l-0.1-0.3l0-0.1l-0.1-0.3l-0.1-0.3l-0.1-0.1l-0.1-0.3l0-0.1l-0.1-0.3l-0.1-0.3l-0.1-0.1l-0.1-0.3l0-0.1l0-0.1
			l-0.1-0.3l0-0.1l-0.1-0.1l-0.1-0.3l0-0.1l0-0.3l0-0.1l0-0.1l-0.1-0.1l-0.1-0.2l-0.1-0.1l-0.2-0.1l-0.1,0l-0.3-0.1l-0.3,0l-0.1,0
			l-0.3,0l-0.3,0l-0.3,0l-0.1,0l-0.3,0.1l-0.3,0.2l-0.1,0.1l-0.2,0.3l0,0.1l0,0.1v0.3v0.3V33l0.1,0.3l0,0.1l0,0.1l0.1,0.2l0.1,0.1
			l0.1,0.2l0,0.1l0.1,0.3l0,0.1l0.1,0.3l0.1,0.1l0.1,0.3l0.1,0.3l0,0.1l0,0.1l0.1,0.3l0.1,0.1l0.1,0.3l0,0.1l0.1,0.3l0,0.1l0.1,0.3
			l0.1,0.1l0.1,0.3l0,0.1l0.1,0.2l0.1,0.1l0.2,0v0.2l0,0.2l0,0.1l0.1,0.3l0.1,0.3l0.1,0.3l0.1,0.1l0.2,0.3l0.1,0.3l0.2,0.3l0.1,0.1
			l0.2,0.3l0.2,0.3l0.1,0.1l0.1,0.1l0.1,0.1l0.1,0.1c0.1,0.2,0.3,0.2,0.5,0.4c0.1,0.1,0.1,0.2,0.2,0.3c0.2,0.2,0.4,0.3,0.6,0.4
			l0.3,0.2l0.1,0.1l0.2,0.2l0.1,0.1l0.1,0.1l0.2,0.2l0.1,0.1l0.3,0.2l0.1,0.1l0.3,0.2l0.3,0.1l0.3,0.1l0.1,0l0.1,0.1l0.3,0.1l0.1,0
			l0.3,0l0.3,0l0.1,0l0.1,0l0.1,0l0.3,0.1l0.1,0l0.3,0l0.1,0l0.1,0l0.3,0h0.1h0.3h0.3h0.4h0.5h0.3h0.3h0.3l0.1,0l0.1,0l0.3-0.1
			l0.3-0.1l0.3-0.1l0.1,0l0.3-0.1l0.3-0.1l0.3-0.1l0.1,0l0.3-0.1l0.3-0.1l0.2-0.1l0.2-0.1l0.2,0l0.1-0.3V43h0.2h0.2l0.1,0l0.1,0
			l0.1,0l0.1-0.1l0.3-0.1l0.1,0l0.3-0.1l0.1,0l0.3-0.2l0.1-0.1l0.1-0.1l0.1-0.1l0.3-0.2l0.3-0.1l0.3-0.1l0.1-0.1l0.3-0.1l0.1-0.1
			l0.3-0.2l0.1-0.1l0.1-0.1l0.3-0.2l0.2-0.3l0.1-0.1l0.2-0.2l0.1-0.1l0.1-0.1l0.1-0.1l0.2-0.2l0.1-0.1l0.2-0.3l0.1-0.1l0.1-0.3
			l0.1-0.3l0.1-0.1l0-0.1l0.1-0.3l0-0.1l0.1-0.1l0.1-0.3l0.1-0.3l0-0.1l0.1-0.3l0.1-0.3l0.1-0.3l0-0.3l0-0.3L248.3,35.8z"/>
	</g>
	<g id="XMLID_1_">
		<path id="XMLID_17_" d="M39.5,30c-0.4,2.6-1.4,6-4.4,6.7c-3,0.6-4.8-3.1-3.8-5.5c1.1-3-3.7-4.4-4.9-1.3c-1.9,4.9,1.8,11.6,7.2,12
			c6.1,0.5,9.9-5,10.7-10.4C44.9,28.2,40,26.8,39.5,30z"/>
		<path id="XMLID_16_" d="M104.8,25.9c-1.2-0.8-2.6-1.1-3.8-1.8c-1.4-0.8-1.7-1-0.2-2.3c1-0.9,2.6-1.2,4-1.5
			c3.1-0.7,1.8-4.7-1.3-4.1c-4.1,0.9-10.9,4.1-8.8,8.6c0.8,1.7,2.4,2.3,4.2,3c1.8,0.7,4.2,1.5,4.6,3.5c0.8,3.6-4.2,3.5-6.8,3.2
			c-3.1-0.4-4.5,3.7-1.3,4.1c5.7,0.7,13.4-0.6,13.1-6.9C108.4,29.4,106.9,27.3,104.8,25.9z"/>
		<path id="XMLID_13_" d="M126.3,24.4c-0.5-4.4-5.8-5.5-9.2-3.8c-3.7,1.8-5.6,5.9-4.8,9.9c1,4.7,5.4,7.7,10.1,7.3
			c3.2-0.3,3.2-5.3,0-5c-1.9,0.2-3.8-0.7-4.7-2.2C121.5,30.8,126.8,29.4,126.3,24.4z M120.3,25.6c-0.5,0.2-1.2,0.2-1.8,0.1
			c0.5-0.5,1.2-0.8,1.8-0.8C121.4,24.8,121.1,25.2,120.3,25.6z"/>
		<path id="XMLID_12_" d="M134.2,25.5c0-0.3-0.1-0.7-0.1-1c-0.3-3.2-5.3-3.2-5,0c0.3,3,0.5,6,0.8,9c0.2,1.9-0.1,4.7,1.5,6.1
			c2.4,2.1,6-1.4,3.6-3.6c0.5,0.4,0.1-2,0.1-2c-0.1-1-0.2-2-0.3-3.1c1.3-1.2,4.7-1.7,5.6-0.2c1.6,2.8,6,0.3,4.4-2.5
			C142.5,24.6,137.9,24,134.2,25.5z"/>
		<path id="XMLID_11_" d="M161.8,29.2c-2.6-1.3-5.5-1.3-7.9-0.2c0-0.5,0-1,0-1.5c0.1-1.8-2.2-3.3-3.8-2.2c0,0-0.1,0.1-0.1,0.1
			c-0.8,0.6-1.1,1.3-1.1,2.1c0,0,0,0,0,0c-0.1,4.1,0.7,8.4,0.7,12.5c0,3.2,5,3.3,5,0c0-1.6-0.1-3.3-0.3-4.9c1-1.8,3-2.6,5-1.7
			C162.2,34.9,164.8,30.6,161.8,29.2z"/>
		<path id="XMLID_10_" d="M200,24.9c-1.1-0.1-2.2-0.2-3.3-0.2c-0.2-1.5-0.4-3-0.7-4.4c-0.6-3.2-5.4-1.8-4.9,1.3c0.2,1,0.3,2,0.4,3
			c-1.1,0-2.2,0-3.3,0c-3.2,0.1-3.3,5.1,0,5c1.3,0,2.5,0,3.8,0c0.2,3.1,0.3,6.2,0.3,9.3c-0.1,3.2,5,3.2,5,0c0.1-3.1,0-6.1-0.3-9.1
			c0.9,0.1,1.9,0.1,2.8,0.2C203.2,30.2,203.2,25.1,200,24.9z"/>
		<path id="XMLID_7_" d="M63.8,32.1c-0.1,0-0.1,0-0.2,0c0,0,0,0-0.1,0c0,0-0.4-0.1-0.4-0.1c-0.2-0.1-0.5-0.3-0.5-0.4
			c0,0-0.2-0.2-0.3-0.3c-0.1-0.1-0.2-0.3-0.2-0.3c-0.1-0.2-0.2-0.5-0.3-1.1c0-0.2-0.1-0.4-0.2-0.6c0-0.3-0.1-0.7-0.1-1
			c-0.3-1.6-1.7-2.1-3-1.7c-5.5-3.4-14.1,6-10.8,12.2c2.1,4,7.2,3.4,10.2,0.8c1.2-1.1,2.2-2.3,2.8-3.7c0.9,0.5,2,0.9,3.1,0.9
			c1.3,0,2.4-1.1,2.4-2.4C66.1,33.2,65.1,32.2,63.8,32.1z M52.2,36.7c-1-0.7,0.4-3.1,0.8-3.8c0.3-0.4,2.4-2.7,3-1.6
			c0.2,0.3,0.4,0.5,0.6,0.6c-0.1,0.8-0.4,1.7-0.8,2.4C55.3,35.1,53.4,37.6,52.2,36.7z"/>
		<path id="XMLID_4_" d="M183.6,33.4c-0.6,0.1-1.1-0.1-1.5-0.5c0-2.3-0.8-4.5-2.8-5.6c-1.1-0.6-2.2-0.3-2.9,0.3
			c-3.7,0.1-7.2,2.2-8.5,5.8c-1.2,3.3-0.2,7.4,3.4,8.6c3.5,1.1,7.5-1.1,9.4-4c1.2,0.6,2.6,0.8,4.3,0.4
			C188.1,37.6,186.7,32.7,183.6,33.4z M173.1,37.1c-1.6-0.7-0.4-2.6,0.3-3.3c0.8-0.8,1.8-1.1,2.9-1.2c0.2,0.5,0.4,0.9,0.6,1.4
			C176.2,35.8,174.4,37.7,173.1,37.1z"/>
		<path id="XMLID_3_" d="M16.1,29.1c1.1,1.7-0.5-3.8-0.3,4.6c0.1,6.2,1.5,26.1-9.9,23.6c-3.2-0.7-4.5,4.2-1.3,4.9
			c9.3,2,15-5.9,15.7-14.1c1.1-13,1.1-6.1,0.8-19C21,25.8,15.8,25.8,16.1,29.1z"/>
		<path id="XMLID_2_" d="M75.1,23.4c-3.2,1-5.5,2.8-5.9,6.2c-0.2,2-0.5,3.9-0.7,5.9c-0.4,3.1,4.6,3.1,4.9,0c0.2-1.9-0.1-5.6,1.5-6.8
			c1.3-1,4-1.5,5.4-0.7c2.9,1.7,2.5,5.3,1.8,8c-0.7,3.1,4,4.4,4.8,1.3c1-4.1,1.1-8.4-1.9-11.7C82.2,22.6,78.9,22.2,75.1,23.4z"/>
	</g>
</g>
</svg>
