<?xml version="1.0" encoding="utf-8"?>
<!-- Generator: Adobe Illustrator 22.1.0, SVG Export Plug-In . SVG Version: 6.00 Build 0)  -->
<svg version="1.1" id="Layer_1" xmlns="http://www.w3.org/2000/svg" xmlns:xlink="http://www.w3.org/1999/xlink" x="0px" y="0px"
	 viewBox="0 0 184 107" style="enable-background:new 0 0 184 107;" xml:space="preserve">
<style type="text/css">
	.st0{fill:#FFFFFF;}
</style>
<g>
	<path class="st0" d="M78.1,61.3l0.2,0l0.1,0l0.1,0l0.2-0.1l0.1-0.2l0-0.1l0-0.1l0-0.3c0-0.1,0-0.1,0-0.2l0-1.3l0-0.7
		c0-0.2,0-0.5,0.1-0.7c0.1-0.1,0.3-0.2,0.5-0.2c0.2,0,0.4-0.1,0.6-0.1c0.1,0,0.2,0,0.3,0.1l0.2,0l0.1,0l0.3-0.1l0.4-0.1l0.6-0.2
		l0.3-0.1l0.1-0.1l0.1-0.1l0.2-0.2l0.2-0.2l0.4-0.5l0.4-0.6l0.3-0.7l0.1-0.2l0-0.1l0-0.1l0-1.4l-0.1-0.6l0-0.3l-0.3-0.5l-0.1-0.2
		l-0.3-0.3L83,51l-0.4-0.1l-0.8-0.2l-0.1,0l-0.9,0l-0.5,0.1l-1.3,0.4c-0.2,0.1-0.4,0.2-0.6,0.3c-0.3,0.1-0.5,0.3-0.8,0.4
		c-0.1,0-0.2,0.1-0.3,0.2l-0.1,0.2l-0.1,0.2l0,0.4l0,0.2l0.1,0.3l0,0.1l0,0.5l0.1,0.5l0,2.2l0.1,0.3l0,0.1l0,0.3l0,1.4l0.1,0.4
		l0,0.7l0,0.2l-0.1,0.4l0,0.7l0,0.1l0,0.1l0.1,0.1L78.1,61.3z M79.1,56.1C79.1,56.1,79.1,56.1,79.1,56.1c-0.1,0-0.2-0.1-0.2-0.1
		c-0.1-0.1-0.1-0.4-0.1-0.6c0-0.2,0-0.3,0-0.5l0-1l0.1-0.3l-0.1-0.4l0.1-0.4l0.2-0.3l0.2-0.2l0.6-0.2l0.3-0.1l0.6-0.1l0.3-0.1l0.2,0
		l0.3,0l0.3,0l0.2,0.1l0.2,0.1l0.1,0.1l0.2,0.2l0.1,0.3l0,0.2l0,0.8l0,0.2l-0.1,0.3l-0.1,0.3l-0.2,0.4l-0.2,0.3L82,55.3l-0.2,0.1
		l-0.3,0.2l-0.3,0.2L80.7,56l-0.5,0.1c-0.2,0-0.3,0-0.5,0.1C79.5,56.2,79.3,56.2,79.1,56.1"/>
	<path class="st0" d="M36.3,63.5l0.1,0l0.1,0l0.4-0.2l0.1-0.3l0-0.1l0-0.6l0-0.2l0.1-0.3l0-0.1l0-0.1l-0.1-0.2l0-0.2l0-0.2l-0.1-0.4
		l0-3.8l0-0.3l0-0.3l0.1-0.3l0.3-0.6l0.2-0.3l0-0.1l0-0.2l0.1-0.4l0.4-0.8l0.1-0.2l0.4-1l0.2-0.3l0.3-0.4l0-0.1l0-0.2l0-0.2l0-0.2
		l0-0.2l0-0.1L39,50.5L39,50.5l-0.1,0l-0.1,0l-0.2-0.1l-0.2-0.1l-0.2,0l-0.1,0l-0.1,0.1L38,50.5l0,0.1L37.8,51l-0.2,0.6L37.4,52
		l-0.2,0.3c-0.2,0.4-0.4,0.7-0.6,1.1c-0.1,0.3-0.3,0.6-0.6,0.5c-0.2,0-0.4-0.1-0.5-0.2l-1.1-0.6l-0.9-0.4l-0.2-0.1l-0.3-0.3
		l-0.1-0.1l-0.7-0.3l-0.1,0l-0.4,0.2l-0.1,0.1l0,0l0,0.1l0,0.6l0,0.1l0,0.1l0.1,0.1l0.1,0.1l0.5,0.2l0.4,0.2l0.4,0.1l0.3,0.2
		l0.4,0.2l0.3,0.1l0.1,0.1l0.3,0.2l0.2,0.2l0.3,0.3l0.1,0.1l0.1,0.2l0,0.2l0,0.2l0,0.1l0.1,0.4l0.1,0.6l0,0.1l0.2,1.3l0,1.6l0,0.3
		l-0.1,0.4l0,0.3l-0.1,0.3l0.1,0.5l0,1.1l0.1,0.2l0.1,0.1l0.3,0.2L36.3,63.5L36.3,63.5z"/>
	<path class="st0" d="M112.1,61.2L112.1,61.2l0.5-0.1l0.1,0l0.2-0.2l0.1-0.1l0-0.1l0.1-0.3l0.1-0.2l0-0.1l0-0.1l-0.1-0.7l0-0.2
		l0-0.4l0-1.3l0-0.2l-0.1-0.3l-0.1-0.1l-0.1-0.1l-0.4-0.3l-0.5-0.3l-0.2-0.1l-0.2-0.2l-0.1-0.2l0-0.2l0.1-0.3l0.1-0.2l0-0.1l0-0.1
		l-0.1-0.4l0-0.2l-0.1-0.2l-0.2-0.3l-0.5-0.4l-0.2-0.1l-0.2-0.1l-0.4-0.2l-0.1,0l-0.5,0l-0.7,0.1l-0.5,0.2l-0.1,0l-0.1,0.1l-0.8,0.6
		l-0.2,0.1l-0.4,0.2l-0.1,0.1l-0.1,0.1l-0.1,0.2l0,0l0,0.1l0,0.4l0.2,0.7l0.4,0.5l0.1,0.3l0.1,0.4l0.2,0.8l0,0.3l0,0.1l0.1,0.3
		l0,0.2l0,0.2l0,0.2l-0.1,0.4l0,0.2l-0.1,0.3l0,0.2l0,0.2l0,0.1l0.1,0.1l0.4,0.2l0.4,0l0.1,0l0.2-0.6l0-0.1l0-0.1l-0.1-0.4l0-0.3
		l0-0.3l0.1-0.4l0.1-0.2l0.1-0.2l0.2-0.2l0.3-0.1l0.3-0.1l0.1,0l0.3-0.2l0.4-0.2l0.1-0.1l0.2-0.1l0.1,0l0.3,0l0.4,0.2l0.3,0.3
		l0.1,0.2l0.1,0.4l0.1,0.4l-0.1,0.4l-0.1,0.3l-0.1,0.2l0,0.7l-0.1,0.5l0,0l0.1,0.1l0.3,0.4l0.1,0L112.1,61.2z M107.8,56.3l-0.3-0.4
		l-0.1-0.3l0-0.3l0.1-0.3l0.1-0.2l0.2-0.2l0.1-0.1l0.2-0.2l0.2-0.1l0.5-0.2l0.2,0l0.2,0l0.3,0.1l0.1,0l0.1,0l0.5,0.3l-0.1,0.6
		l-0.2,0.3l-0.2,0.2l-0.3,0.2l-0.9,0.5l-0.3,0.1L107.8,56.3z"/>
	<path class="st0" d="M7.9,64.5l0.2,0l0.5-0.1l0.1-0.3l0-0.1l0-0.2l-0.1-0.3l0-0.6l-0.1-0.4l0-0.2L8.3,62l0-1l0.1-0.3l0.2-0.2
		l0.2-0.1l0.3-0.1l0.7,0l0.2-0.1l1.1-0.6l0.8-0.5l0.6-0.5l0.9-0.9l0.9-0.7l0.4-0.4l0.5-0.5l0.6-1l0.1-0.2l0.2-0.7l0-0.1l0-0.7L16,53
		l0-0.2l-0.1-0.4l-0.1-0.1l-0.2-0.3l-0.1-0.2l-0.7-0.7l-0.4-0.3l-0.5-0.3l-0.2-0.2l-0.1,0l-0.1,0l-0.1,0l-0.2,0l-0.4-0.1l-0.8,0
		l-0.1,0l-1.1,0.2l-0.3,0l-0.6,0.2l-0.3,0.1L9.2,51c-0.4,0.2-0.7,0.3-1,0.5c-0.2,0.2-0.5,0.3-0.7,0.5c-0.1,0.1-0.1,0.1-0.2,0.2
		c-0.1,0.1-0.2,0.1-0.3,0.1c-0.3,0.1-0.5,0.3-0.6,0.6c0,0.2,0,0.6,0.1,0.8c0,0,0.1,0.3,0.1,0.3l0.2,0.4l0,0.1l0,0.3l0,2l0.1,0.4
		l0,0.7L7,58.5L7,59l0.1,0.4l0,1.1l0.1,0.7l0,0.3l0,0.8l0.1,0.4l0,1.2L7.4,64l0.1,0.2L7.9,64.5L7.9,64.5z M9.8,59l-1.6,0l0-0.7
		L8,56.6l0-2.3L8.1,54c0.2-0.5,0.7-0.8,1-1.2c0.1-0.1,0.1-0.1,0.2-0.2c0.1-0.1,0.2-0.1,0.3-0.2c0.2-0.1,0.5-0.4,0.7-0.6l0.4-0.2
		l1.1-0.4l0.2,0l0.2,0l0.3,0l0.3,0l0.2,0l0.2,0l0.3,0.1l0.4,0.2l0.5,0.4l0.2,0.2l0.1,0.1l0.1,0.2l0.1,0.3l0,0.4l0,0.4l0,0.2
		l-0.1,0.3l-0.1,0.2l-0.3,0.6l-0.2,0.3l-0.4,0.5l-0.3,0.3l-0.4,0.4l-0.5,0.4l-0.2,0.2l-0.3,0.3l-0.5,0.4l-0.4,0.3L11,58.4l-0.2,0.2
		l-0.4,0.3L10,58.9L9.8,59z"/>
	<polygon class="st0" points="59.9,60.9 60.3,60.9 60.4,60.8 60.4,60.8 60.6,60.2 60.6,60.2 60.6,60.1 60.4,59.5 60.3,59.3 
		60.3,58.7 60.3,58.6 60.1,57.9 60.1,57.1 59.9,56.1 59.8,55.7 59.8,55.2 59.8,54.6 59.8,54.1 60.4,53.9 60.7,53.9 61.1,53.7 
		61.3,53.7 61.8,53.7 62.6,53.5 62.6,53.5 62.7,53.4 62.8,53 62.8,53 62.8,52.9 62.5,52.5 62.4,52.3 62.3,52.3 61.9,52.2 61.8,52.2 
		61.7,52.2 61.2,52.4 60.8,52.4 60.1,52.7 58.1,53.2 57.5,53.2 57.4,53.2 57,53.4 56.9,53.5 56.9,54 56.9,54.2 57.1,54.5 57.2,54.5 
		57.3,54.6 57.6,54.6 57.8,54.7 58,54.7 58.2,54.9 58.3,55 58.5,55.3 58.5,55.6 58.8,57.1 58.8,57.6 58.9,58.3 58.9,58.5 59,58.9 
		59,59.1 59.1,59.4 59.1,59.6 59.1,59.9 59.2,60.3 59.2,60.4 59.3,60.6 59.3,60.7 59.4,60.7 59.5,60.8 59.6,60.8 	"/>
	<path class="st0" d="M97.4,61.3l0.5,0l0,0l0.1-0.1l0.2-0.3l0-0.2l0.1-0.4l0-0.1l0-0.2l-0.1-0.3l-0.1-0.3l0-0.5l0-0.2
		c0-0.1,0-0.3,0.1-0.4c0,0,0.1,0,0.1,0c0.1,0,0.2,0,0.3,0c0.3,0,0.7,0,1,0l0.4-0.2l0.2-0.1l0.3-0.1l0.3,0.1l0.2,0.1l0.2,0.2l0.2,0.2
		l0.2,0.2l0.5,0.9l0.1,0.3l0,0.4l0,0.1l0,0.1l0.1,0.1l0.1,0.1l0.1,0l0.2,0l0.5,0l0.2-0.6l0-0.1l0-0.2l-0.2-0.9l0-0.1l-0.3-0.4
		l-0.3-0.5l-0.2-0.2l-0.2-0.3l-0.2-0.3l-0.2-0.2l-0.1-0.1l-0.1-0.2l0-0.3l0.2-0.4l0-0.1l0-0.2l0-0.2l0-0.1l0-0.1l0-0.4l0-0.1
		l-0.1-0.1l-0.5-0.6l-0.7-0.5l-0.4-0.2l-0.3-0.1l-0.1,0l-0.2,0l-0.6,0l0,0l-0.7,0.4L97.6,54l-0.5,0.1L97,54.2l-0.3,0.2l-0.3,0.2
		l-0.2,0.1l-0.1,0.1l0,0.2l0,0.1l0.2,0.8l0.2,0.7l0,0.2l0,0.1l0.2,1.1l0,0.1l0.1,0.4l0,0.1l0.1,0.8l0,0.7l0,0.3L97,60.8l0,0.3l0,0
		L97.4,61.3L97.4,61.3z M98,57.1C98,57.1,98,57.1,98,57.1c-0.1,0-0.1-0.1-0.1-0.1c0-0.1,0-0.2,0-0.3c0-0.1,0-0.2,0-0.3
		c0-0.1-0.1-0.1-0.1-0.2l0-0.3l0.1-0.2l0.2-0.2l0.2-0.1l0.3-0.1l0.6-0.3l0.4-0.1l0.1,0l0.3,0l0.2,0l0.1,0l0.1,0.1l0.2,0.3l0.1,0.3
		l0,0.2l-0.1,0.3l-0.1,0.1l-0.2,0.3l-0.2,0.1l-0.4,0.2l-0.3,0.1C98.9,56.9,98.5,57.1,98,57.1C98,57.1,98,57.1,98,57.1"/>
	<path class="st0" d="M43.1,63.5c0.1,0,0.3,0.1,0.4,0.1c0.1,0,0.2,0,0.2,0c0.3,0,0.5-0.3,0.8-0.5c0.2-0.1,0.4-0.3,0.5-0.4l0.3-0.2
		l0.4-0.2l0.2-0.1l0.2-0.1l0.2-0.1l1.2-0.3l0.2,0l0.4-0.1l0.3-0.1l0.7-0.1l0,0l0,0l0.1-0.3l0-0.1l0-0.1l-0.1-0.2l-0.2-0.2l-0.2-0.1
		l-0.1,0l-0.1,0l-0.6,0l-0.1,0l-0.1,0l-0.4,0.1l-0.2,0l-0.2,0l-0.1,0L46.2,61L46,61l-1.4,0.6l-0.3,0.2l-0.3,0l-0.3-0.1l-0.2-0.3
		l0-0.2l0-0.4c-0.1-0.2-0.1-0.3-0.2-0.5c-0.1-0.2-0.3-0.6-0.2-0.8c0.1-0.1,0.1-0.2,0.2-0.2c0.2-0.1,0.4-0.2,0.6-0.3l0.3-0.1l0.9-0.3
		l0.5-0.2l0.3-0.1l0.5-0.1l0.4-0.1l0.2-0.1l0.3-0.1l0.5-0.2l0.2,0l0.1,0l0,0l0.1-0.2l0.1-0.1l0-0.1l0-0.1l-0.1-0.3l0-0.1l-0.1-0.1
		l-0.1-0.1L48,56.5l-0.2,0l-0.1,0l-0.3,0l-0.1,0l-1.1,0.4L45.9,57l-0.6,0.3l-0.4,0.2l-0.2,0l-0.4,0l-0.1,0l-0.4,0.1l-0.3,0l-0.2,0
		l-0.3-0.1l-0.1-0.1l-0.1-0.1l-0.1-0.2l-0.1-0.2l0-0.4l0.1-0.3l0.1-0.1l0.2-0.2l0.2-0.2l0.3-0.1l0.5-0.2l0.2,0l0.1,0l0.1,0l0.5-0.2
		l1-0.2l0.3,0l0.1,0l0.4,0l0.4-0.1l0,0l0.1-0.1l0.1-0.3l0-0.1l0-0.1l0,0l0-0.1l-0.1-0.1l-0.1-0.1l-0.3-0.1l-0.1,0l-0.1,0l-0.3,0
		c-0.1,0-0.3-0.1-0.4-0.1c-0.2,0-0.5,0-0.7,0.1c-0.1,0-0.2,0-0.3,0.1c-0.1,0-0.2,0.1-0.4,0.1c-0.2,0-0.4,0.1-0.5,0.2
		c-0.1,0-0.1,0.1-0.2,0.1c-0.2,0.1-0.5,0.1-0.7,0.1c-0.2,0-0.4,0.1-0.6,0.2l-0.6,0.3l-0.3,0.1l-0.3,0.2l0,0.1l0,0.6l0.1,0.4l0,0.5
		l0.1,0.8l0,0.2l0.1,0.5l0,0.3l0.2,0.7l0.1,0.3l0,0.2l0,0.1l0.1,0.8l0,0.1l0.1,0.4l0.1,0.3l0,0.2l0,0.1l0.1,0.5l0,0.1
		c0,0,0.1,0.6,0.1,0.6c0,0.2,0.2,0.5,0.3,0.6c0.1,0.1,0.2,0.2,0.3,0.2C43.1,63.5,43.1,63.5,43.1,63.5"/>
	<path class="st0" d="M87.1,62.2c0.1,0.1,0.2,0.1,0.4,0.1c0.1,0,0.1,0,0.2,0c0.3,0,0.5-0.2,0.8-0.3c0.2-0.1,0.4-0.2,0.5-0.3l0.3-0.1
		l0.4-0.1l0.2-0.1l0.2-0.1l0.2,0l1.1-0.1l0.2,0l0.4-0.1l0.2,0l0.7,0l0,0l0,0l0.1-0.2l0-0.1l0-0.1L93,60.7l-0.1-0.2l-0.1-0.1l-0.1,0
		l-0.1,0L92,60.2l-0.1,0l-0.1,0l-0.4,0.1l-0.2,0l-0.2,0l-0.1,0l-0.6,0.1l-0.2,0l-1.3,0.3l-0.3,0.1L88,60.8l-0.2-0.2l-0.1-0.3l0-0.2
		l0-0.4l-0.1-0.5c0-0.2-0.2-0.6-0.1-0.7c0.1-0.1,0.2-0.1,0.2-0.2c0.2-0.1,0.4-0.1,0.6-0.2l0.3,0l0.8-0.1l0.5-0.1l0.3,0l0.5-0.1
		l0.4,0l0.2,0l0.2,0l0.5-0.1l0.2,0l0.1,0l0,0l0.1-0.2l0.1-0.1l0-0.1l0-0.1l0-0.3l0-0.1l0-0.1l-0.1-0.1l-0.1-0.1l-0.1-0.1l-0.1,0
		l-0.3,0l-0.1,0l-1,0.2l-0.2,0l-0.6,0.1l-0.4,0.1l-0.2,0l-0.4,0l-0.1,0L88.4,57l-0.2,0L88,56.9l-0.2-0.2l-0.1-0.1l-0.1-0.1l-0.1-0.1
		l0-0.2l0.1-0.4l0.1-0.3l0.1-0.1l0.2-0.2l0.2-0.1l0.3-0.1l0.5-0.1l0.2,0l0.1,0l0.1,0l0.4-0.1l0.9-0.1l0.3,0.1l0.1,0l0.4,0.1l0.4,0
		l0,0l0.1-0.1l0.1-0.2l0-0.1l0-0.1l0,0l0-0.1l-0.1-0.1L92,53.9l-0.2-0.2l-0.1,0l-0.1,0l-0.3,0c-0.1,0-0.2-0.1-0.4-0.1
		c-0.2,0-0.5,0-0.7,0c-0.1,0-0.2,0-0.3,0c-0.1,0-0.2,0-0.3,0c-0.2,0-0.3,0-0.5,0.1c-0.1,0-0.1,0-0.2,0c-0.2,0-0.4,0-0.6,0
		c-0.2,0-0.4,0-0.5,0.1L87.1,54l-0.3,0.1l-0.3,0.1l0,0.1l-0.1,0.5l0,0.3l-0.1,0.4l0,0.7l0,0.2l0,0.4l0,0.3l0.1,0.7l0,0.3l0,0.2
		l0,0.1l0,0.8l0,0.1l0,0.4l0,0.3l0,0.2l0,0.1l0,0.4l0,0.1c0,0,0,0.6,0,0.6c0,0.2,0.1,0.4,0.2,0.6c0.1,0.1,0.1,0.2,0.2,0.2
		C87,62.2,87.1,62.2,87.1,62.2"/>
	<polygon class="st0" points="55,61 55.9,61 56,60.9 56.4,60.4 56.4,60.4 56.4,60.3 56.4,59.9 56.4,59.9 56.3,59.8 56,59.5 
		55.9,59.4 55.8,59.3 55.7,59.3 55.6,59.3 55.6,59.3 55.2,59.3 54.9,59.4 54.5,59.5 54.3,59.6 54,59.6 53.6,59.5 53.1,59.1 
		52.9,58.9 52.8,58.8 52.7,58.5 52.7,58.3 52.7,57.7 52.8,57.4 52.8,57.1 52.9,57 53.3,56.3 53.6,56 53.8,55.8 54,55.6 54.2,55.5 
		54.6,55.3 54.9,55.2 55.2,55.1 55.2,55 55.2,54.9 55.2,54.7 55.2,54.6 55.2,54.5 55.1,54.3 55.1,54.2 55,54.1 54.9,54.1 54.7,54.1 
		54.6,54.1 54.1,54.2 52.8,55 52.6,55.1 52.3,55.6 52,56 51.9,56.1 51.8,56.5 51.6,56.7 51.5,57.2 51.4,57.7 51.4,57.8 51.4,58.2 
		51.4,58.6 51.4,58.7 51.7,59.5 51.9,59.8 51.9,59.9 52,60 52.7,60.4 53.4,60.6 54.2,60.7 54.6,60.8 54.9,61 	"/>
	<path class="st0" d="M116.9,60.5l0.4,0l0.3-0.1l0.3-0.1l0.7-0.3l0.9-0.6l0.8-0.8l0.3-0.5l0.1-0.1l0.2-1l0-0.2l0-0.5l0-0.1l-0.1-0.3
		l-0.1-0.3l0-0.6l0-0.1l-0.1-0.3l-0.1-0.3l0-0.2l0-0.1l0-0.1l-0.3-0.3l-0.2-0.1l-0.1,0l-0.2,0l-0.2,0l-0.3,0.1l-0.1,0l-0.2,0.2
		l-0.2,0.2l-0.2,0.2l-0.2,0.1l-0.2,0.1l-0.1,0.1l-0.5,0.3l-0.3,0.1l-0.2,0.1l-0.1,0.1l-0.4,0.4l-0.2,0.3l-0.5,0.8l-0.1,0.1l-0.1,0.4
		l-0.1,0.7l0,0.7l0.1,0.3l0,0.1l0.1,0.3l0,0.2l0.2,0.2l0.3,0.2l0.4,0.3l0.1,0.1l0.3,0.1L116.9,60.5z M118,59.2l-0.4-0.1l-0.3-0.1
		l-0.2-0.2l-0.1-0.3l0-0.1l0-0.3l0-0.3l0.1-0.4l0.4-0.8l0.2-0.2l0.3-0.3l0.3-0.2l0.3-0.1l0.3,0l0.3,0.2l0.2,0.3l0,0.2l0,0.2l0,0.6
		l0,0.3l-0.1,0.3l-0.1,0.3l-0.1,0.3l-0.1,0.2l-0.2,0.2l-0.3,0.1l-0.2,0L118,59.2z"/>
	<path class="st0" d="M18.2,64.2l0.3,0l0.2,0l0,0l0.1-0.1l0.2-0.2l0.1-0.1l0,0l0-0.1l0-0.1l-0.1-1l0-0.6l0-0.3l0-0.6l0.1-0.3
		l0.1-0.2l0.3-0.2l0.2-0.1l1.1-0.3l0.2,0l0.1,0l0.2,0l0.3,0l0.3,0.1l0.2,0.1l0.2,0.2l0.1,0.1l0.2,0.2l0.2,0.2l0.3,0.4l0.2,0.4
		l0.6,1.7l0.1,0.4l0.4,0.2l0.2,0.1l0.1,0c0.4,0,0.8-0.4,0.8-0.8c0-0.1,0-0.2,0-0.2c-0.1-0.6-0.4-1.2-0.7-1.8l-0.7-0.8l-0.2-0.3
		l-0.5-0.7l-0.1-0.2l0-0.3l0.1-0.2l0.2-0.2l0.1-0.1l0.3-0.2l0.1-0.1l0.1-0.1l0.1-0.1l0.2-0.8l0-0.1l0-0.2l0.1-0.4l0-1l0-0.1
		l-0.1-0.6l-0.2-0.5l-0.1-0.1L24,54.1L23.8,54l-0.5-0.3L23,53.6l-0.1,0l-0.1,0l-0.1,0l-0.5-0.1l-1.3,0l-0.4,0.1
		c-0.5,0-1,0.1-1.5,0.3c-0.1,0-0.2,0.1-0.3,0.1c-0.3,0.1-0.6,0.1-0.9,0.3c-0.2,0.1-0.4,0.1-0.5,0.2l-0.1,0.3l0,0.1l0,0.3l0.2,0.8
		l0.1,0.2l0,0.3l0,0.8l0.1,0.5l0,0.8l0.1,0.4l0,0.1l0.1,0.4l0,0.7l0.1,0.5l0,0.7l0.1,0.5l0,2l0,0.1l0.1,0.3L18.2,64.2L18.2,64.2z
		 M20.1,59.1l-1.2,0l0-0.7l-0.1-0.5l0-0.9l-0.1-0.4l0-0.2l0.1-0.3l0.1-0.1l0.2-0.2l0.3-0.2l0.2-0.2l0.2-0.1l0.3-0.2l0.5-0.2l0.4-0.1
		l0.3,0l0.1,0l0.4-0.1l0.3,0l0.3,0.1l0.4,0.2L23,55l0.1,0.1l0.1,0.2l0.1,0.2l0.1,0.3l0,0.4l0,0.4l0,0.2l0,0.4l-0.1,0.1l-0.1,0.3
		l-0.2,0.3L22.8,58l-0.3,0.3L22,58.5l-0.9,0.4L20.1,59.1z"/>
	<path class="st0" d="M65.6,59.9l0.6,0l0.5-0.1l0.2,0l0.5-0.1l0.2,0l0.2-0.1l0.6-0.4l0.2-0.3l0.1-0.1l0.2-0.8l0-0.1l0-1.1l-0.2-1.1
		l0-0.2l0-0.2l-0.1-0.4L68.3,55c-0.2-0.2-0.4-0.4-0.6-0.6c-0.1,0-0.1-0.1-0.2-0.1c-0.3-0.1-0.6-0.3-1-0.3c-0.2,0-0.5,0.1-0.8,0.1
		l-0.2,0.1l-0.1,0.1l-0.1,0.1L65,55l-0.4,0.4l-0.2,0.3l-0.3,0.4l-0.1,0.1l-0.1,0.3L64,56.8l-0.1,0.3l0,0.7l0.1,0.7l0.1,0.4l0.1,0.1
		l0.1,0.1l0.7,0.4L65.6,59.9L65.6,59.9z M66.2,58.8l-0.3-0.1l-0.3-0.2l-0.2-0.3l-0.1-0.2l0-0.2l0-0.5l0.1-0.2l0.1-0.2l0-0.2l0.1-0.2
		c0.1-0.2,0.2-0.5,0.4-0.6c0.2,0,0.4-0.1,0.6-0.1c0.1,0,0.2,0.1,0.3,0.2l0.4,0.3l0.2,0.3l0.1,0.2l0,0.2l0,0.5l0,0.2l0,0.2l-0.1,0.3
		l-0.2,0.2L67,58.6l-0.2,0.1l-0.3,0.1L66.2,58.8z"/>
	<path class="st0" d="M28.3,62.3l0.2,0l0.4-0.1c0.1,0,0.3,0,0.4,0c0.1,0,0.2-0.1,0.3-0.1c0.1,0,0.3-0.1,0.4-0.1
		c0.3-0.1,0.6-0.3,0.8-0.5c0.1-0.1,0.1-0.2,0.2-0.3c0,0,0.1-0.1,0.1-0.2c0.2-0.3,0.3-0.5,0.5-0.8l0.3-0.5l0.1-0.4l0-0.3l0-0.8
		l-0.1-0.5l-0.3-0.5l-0.3-0.4l-0.1-0.1l-0.7-0.4l-0.7-0.3l-0.1,0l-0.1,0l-0.8,0l-0.5,0.1l-0.2,0.1l-0.5,0.3l-0.2,0.2L27,57.2
		l-0.1,0.1l-0.1,0.1l-0.4,1l-0.2,0.4l0,0.2l-0.1,0.2L26,59.5l0,0.2l0.1,0.4l0,0.3l0,0.1l0.2,0.4l0.1,0.2l0.2,0.3l0.3,0.4l0.3,0.2
		l0.1,0l0.4,0.1l0.2,0L28.3,62.3z M28.3,60.6c-0.1,0-0.2,0-0.3-0.1c-0.1-0.1-0.3-0.1-0.3-0.2c-0.2-0.2-0.1-0.5-0.1-0.7l0.3-0.8
		l0.2-0.4l0.3-0.4l0.2-0.3l0.2-0.2l0.4-0.3l0.3-0.1l0.3,0l0.3,0.1l0.2,0.2l0.2,0.2l0.2,0.3l0.1,0.2l0,0.1l0,0.5l0,0.2l-0.1,0.3
		l-0.1,0.3l-0.5,0.6l-0.3,0.2l-0.2,0.1l-0.3,0.1l-0.4,0.1l-0.2,0C28.6,60.6,28.4,60.6,28.3,60.6"/>
	<path class="st0" d="M177.4,51.1l0-0.2c-0.2-0.7-0.6-2.7-2.6-5.8c-2.2-3.3-2.9-3.8-6-5.4c-3.5-1.8-6.7-2.8-8.8-2.7
		c-2.4,0.1-6.1,1.1-8.2,2.7l-0.2,0.1l-0.1,0c-1.9-1.1-4.1-2.1-5.1-2.4c-1.7-0.5-8,0.1-10.2,0.7c-1,0.3-1.9,0.8-2.7,1.5l-0.1,0.1
		l-0.1-0.1c0,0,0,0,0,0c-0.1-0.1-0.2-0.1-0.3-0.1h0c-0.1,0-0.3,0.1-0.3,0.1c-0.1,0.1-1.9,1.9-2.8,3.4c-0.2,0.3-0.4,0.6-0.6,0.9
		c-1,1.6-2.6,4-2.9,5.9c-0.6,3.6-0.6,6.2,0,8.1l0.1,0.5c0.7,2.2,1.4,4.5,3.5,6.4c2.4,2.2,4.7,3.5,7.7,4.3c3.6,1,6.5,1,9.5,0.2
		l0.5-0.2c2-0.6,2.8-0.8,4-1.8l0.1-0.1l0.1,0c1.1,0.5,2.6,1.1,4.4,1.8c1.6,0.6,2.9,0.9,5.1,0.9c0.3,0,0.6,0,0.9,0c0.2,0,0.3,0,0.5,0
		l0.1,0c1.3-0.1,2.6-0.5,4-1.2l0.1,0l0.1,0.1c0.1,0.1,0.2,0.2,0.4,0.1c0.4,0,0.9-0.4,1.9-1.1c0.5-0.4,1.1-0.8,1.7-1.2
		c1.6-1.1,3.5-3.1,4.4-4.5c0.6-0.8,0.8-1.6,1-2.4c0.2-0.5,0.3-1.1,0.6-1.8C177.6,56,177.7,52.5,177.4,51.1 M159.9,38.1
		c0.1,0,0.1,0,0.2,0c1.2,0,2.8,0.4,4.7,1.1c-0.2-0.1-0.4-0.1-0.7-0.2l-0.3-0.1c-2.5-0.7-4.3-0.8-5.3-0.7
		C159,38.2,159.5,38.1,159.9,38.1 M157.3,38.5c-1.3,0.5-2.5,1.1-3.7,1.7c-0.2,0.1-0.5,0.2-0.7,0.3c0,0,0,0-0.1,0
		c-0.1-0.1-0.2-0.1-0.3-0.2C153.8,39.5,155.6,38.9,157.3,38.5 M154.8,44.5c-0.6-0.8-1.3-1.6-2.1-2.4c0,0-0.1-0.1-0.1-0.1
		c0,0,0.1,0,0.1-0.1c0.2,0.1,0.3,0.2,0.4,0.3C153.5,42.7,154.1,43.5,154.8,44.5 M146,38.4c0.3,0.1,0.6,0.2,1,0.4
		c-0.3-0.1-0.6-0.2-0.9-0.2c-0.5-0.1-1.1-0.2-1.6-0.3C145.1,38.3,145.7,38.3,146,38.4 M130,44.5c0.2-0.4,0.4-0.7,0.6-0.9
		c0.2-0.3,0.4-0.5,0.6-0.8c0.2,0.1,0.4-0.1,0.6-0.3c0.5-0.4,0.9-0.7,1.3-1.1c0.9-1,1.9-1.7,3.4-2.1c0.1,0,0.2-0.1,0.4-0.1
		c-1.7,0.8-3.3,2.2-4.7,3.5c-0.3,0.3-0.7,0.6-1,0.9c0,0-0.1,0.1-0.1,0.1l0,0c0,0,0,0,0,0c0,0,0,0,0,0c0,0,0,0,0,0c0,0,0,0,0,0l0,0
		c-0.2,0.3-0.5,0.6-0.8,1c-0.4,0.5-0.9,1.1-1.3,1.7C129.3,45.5,129.7,45,130,44.5 M127.4,58c0-0.2-0.1-0.3-0.1-0.5
		c-0.5-1.7-0.5-4.2,0-7.6c0.1-0.7,0.4-1.4,0.7-2.1c-0.1,0.3-0.2,0.6-0.3,0.9c-0.2,1.3-0.3,2.7-0.4,4c0,0.2,0,0.5,0,0.7
		c-0.1,2.4,0.4,5.5,1.5,8.1C128.1,60.5,127.8,59.3,127.4,58 M131.7,64c-2.3-2.5-3.3-7.2-3.1-10.4c0-0.2,0-0.5,0-0.8
		c0.1-1.3,0.1-2.6,0.3-3.9c0.2-1.3,1.3-2.6,2.3-3.8c0.1-0.1,0.2-0.2,0.3-0.3c0,0,0.1-0.1,0.1-0.1l0.4-0.5c0.3-0.3,0.6-0.6,1-0.9
		c1.8-1.6,3.8-3.4,5.9-3.8c4.5-0.8,8.3,0.1,10.8,1.6c-1.2,1.1-2.6,2.6-3.4,4.1l-0.1,0.1c-1,1.9-1.9,3.5-2,6.9c0,3.6,0.3,5.8,1.1,7.6
		c0.6,1.3,2.1,4.1,3.4,5.6c-3,1.4-5.8,2.2-8.4,2.2C136.9,67.7,134,66.5,131.7,64 M147.4,61.2l-0.2,0.1c-0.4-0.7-0.7-1.3-1-1.9
		c-0.5-1-0.7-2.2-0.9-3.7l0.2,0C145.9,57.6,146.5,59.5,147.4,61.2 M147.9,62.4l0.2-0.1c0.6,0.9,1.2,1.7,1.9,2.4l0.1,0.1l-0.4,0.2
		l-0.1-0.1C149.1,64.3,148.4,63.2,147.9,62.4 M147.2,68l-0.5,0.2c-1.5,0.4-3,0.6-4.7,0.5c2.3-0.3,4.9-1.1,7.6-2.4
		c0.2,0.1,0.5,0.3,0.8,0.5C149.6,67.3,148.9,67.6,147.2,68 M151.3,64.2l-0.2,0.1l-0.1-0.1c-1-0.9-1.9-2.1-2.6-3.3
		c-2.1-3.8-2.7-8.6-1.4-12.4c0.8-2.4,2.3-4.4,4.5-6l0.1-0.1l0.1,0.1c0.1,0.1,0.2,0.2,0.3,0.3c3.6,3.8,5.3,7.4,4.9,10.8
		C156.5,56.6,155.3,62,151.3,64.2 M151.8,65l0.2-0.1c0.1-0.1,0.3-0.2,0.4-0.2l0.8-0.6l-1.1,1.1L151.8,65z M162.6,68.9L162.6,68.9
		c-0.2,0-0.4,0-0.6,0c-1.6,0.1-2.7,0-3.7-0.3c0.8,0.1,1.5,0.1,2.3,0.1c2,0,3.8-0.4,5.8-1.1C165.3,68.3,164,68.8,162.6,68.9
		 M167.4,66.1c-2.4,1-4.6,1.5-6.8,1.5c-1.4,0-2.9-0.2-4.6-0.6c-1-0.2-2-0.6-2.9-1.2l-0.1-0.1l0.1-0.1c1.8-2,3.5-3.8,4.3-6.6
		c0.2-0.8,0.7-2.8,1-5c0.2-2.2,0.2-4-0.3-5.3c-1-2.9-3.1-6.2-4.2-7.3l-0.2-0.2l0.4-0.2c1.2-0.6,2.4-1.2,3.6-1.6
		c1.5-0.5,4.4,0.1,5.9,0.5l0.3,0.1c2.1,0.6,5.6,1.6,7.3,3.5c2.6,3.1,5.1,8.4,3.7,13.3C172.9,63,169.4,65.3,167.4,66.1 M175.8,57.5
		c-0.3,0.7-0.5,1.4-0.6,1.9c-0.2,0.8-0.4,1.4-0.9,2.1c-0.6,0.8-1.5,1.9-2.5,2.8c1.5-1.6,3-3.8,4-7.2c0.7-2.3,0.6-5-0.2-7.6
		c-0.2-0.7-0.5-1.4-0.8-2.1c1.1,1.9,1.3,3.1,1.5,3.7c0,0.1,0,0.1,0,0.2C176.6,52.6,176.5,55.9,175.8,57.5"/>
</g>
</svg>
