<?xml version="1.0" encoding="utf-8"?>
<!-- Generator: Adobe Illustrator 22.1.0, SVG Export Plug-In . SVG Version: 6.00 Build 0)  -->
<svg version="1.1" id="Layer_1" xmlns="http://www.w3.org/2000/svg" xmlns:xlink="http://www.w3.org/1999/xlink" x="0px" y="0px"
	 viewBox="0 0 285 63" style="enable-background:new 0 0 285 63;" xml:space="preserve">
<g>
	<g id="XMLID_158_">
		<path id="XMLID_174_" d="M38.5,29.7c-0.4,2.6-1.4,6.1-4.4,6.7c-3,0.6-4.8-3.1-3.9-5.6c1.2-3.1-3.8-4.4-4.9-1.4
			c-1.9,5,1.8,11.7,7.2,12.1c6.2,0.5,10-5,10.9-10.5C43.9,27.8,39,26.4,38.5,29.7z"/>
		<path id="XMLID_173_" d="M104.5,25.4c-1.2-0.8-2.6-1.1-3.8-1.8c-1.4-0.8-1.7-1-0.3-2.3c1-0.9,2.7-1.3,4-1.5
			c3.1-0.7,1.8-4.8-1.3-4.1c-4.2,0.9-11,4.1-8.9,8.7c0.8,1.7,2.4,2.3,4.3,3.1c1.8,0.8,4.2,1.5,4.6,3.5c0.8,3.7-4.3,3.6-6.8,3.2
			c-3.1-0.4-4.5,3.7-1.3,4.1c5.7,0.7,13.5-0.6,13.2-6.9C108,29,106.5,26.9,104.5,25.4z"/>
		<path id="XMLID_170_" d="M126.2,24c-0.5-4.4-5.9-5.5-9.3-3.8c-3.7,1.8-5.7,6-4.8,10c1,4.7,5.5,7.8,10.2,7.4c3.2-0.3,3.3-5.4,0-5.1
			c-1.9,0.2-3.8-0.7-4.8-2.2C121.3,30.5,126.7,29,126.2,24z M120.1,25.1c-0.5,0.2-1.2,0.2-1.9,0.1c0.5-0.5,1.2-0.8,1.9-0.8
			C121.3,24.4,121,24.8,120.1,25.1z"/>
		<path id="XMLID_169_" d="M134.2,25.1c0-0.3-0.1-0.7-0.1-1c-0.3-3.2-5.4-3.3-5.1,0c0.3,3,0.5,6,0.8,9.1c0.2,1.9-0.1,4.8,1.5,6.2
			c2.5,2.2,6.1-1.4,3.6-3.6c0.5,0.4,0.1-2,0.1-2c-0.1-1-0.2-2.1-0.3-3.1c1.3-1.2,4.7-1.7,5.6-0.2c1.7,2.8,6.1,0.3,4.4-2.6
			C142.6,24.2,137.9,23.6,134.2,25.1z"/>
		<path id="XMLID_168_" d="M162.1,28.8c-2.7-1.3-5.6-1.3-8-0.2c0-0.5,0-1,0-1.5c0.1-1.8-2.3-3.3-3.8-2.2c0,0-0.1,0.1-0.1,0.1
			c-0.8,0.6-1.1,1.3-1.1,2.1c0,0,0,0,0,0c-0.1,4.2,0.7,8.4,0.7,12.7c0,3.3,5.1,3.3,5.1,0c0-1.6-0.1-3.3-0.3-4.9
			c1.1-1.8,3.1-2.6,5-1.7C162.5,34.6,165,30.2,162.1,28.8z"/>
		<path id="XMLID_167_" d="M200.7,24.5c-1.1-0.1-2.2-0.2-3.4-0.2c-0.2-1.5-0.4-3-0.7-4.5c-0.6-3.2-5.5-1.9-4.9,1.4
			c0.2,1,0.3,2,0.4,3c-1.1,0-2.2,0-3.3,0c-3.3,0.1-3.3,5.2,0,5.1c1.3,0,2.6,0,3.9,0c0.2,3.1,0.3,6.2,0.3,9.4c-0.1,3.3,5,3.3,5.1,0
			c0.1-3.1,0-6.2-0.3-9.2c0.9,0.1,1.9,0.1,2.8,0.2C203.9,29.8,203.9,24.7,200.7,24.5z"/>
		<path id="XMLID_164_" d="M63,31.8c-0.1,0-0.1,0-0.2,0c0,0,0,0-0.1,0c0,0-0.4-0.1-0.4-0.1c-0.2-0.1-0.5-0.3-0.5-0.4
			c0,0-0.2-0.2-0.3-0.3c-0.1-0.1-0.2-0.3-0.2-0.4c-0.1-0.2-0.2-0.5-0.3-1.1c0-0.2-0.1-0.4-0.2-0.6c0-0.3-0.1-0.7-0.2-1
			c-0.3-1.6-1.8-2.1-3-1.7c-5.6-3.4-14.3,6.1-10.9,12.4c2.2,4,7.3,3.4,10.3,0.8c1.2-1.1,2.2-2.4,2.8-3.8c1,0.6,2,0.9,3.2,0.9
			c1.3,0,2.4-1.1,2.4-2.4C65.4,32.8,64.3,31.8,63,31.8z M51.3,36.3c-1-0.7,0.4-3.2,0.8-3.8c0.3-0.4,2.4-2.7,3.1-1.7
			c0.2,0.3,0.4,0.5,0.6,0.6c-0.1,0.9-0.4,1.7-0.8,2.5C54.5,34.8,52.5,37.3,51.3,36.3z"/>
		<path id="XMLID_161_" d="M184.1,33.1c-0.6,0.1-1.1-0.1-1.5-0.6c0-2.3-0.8-4.6-2.8-5.7c-1.1-0.6-2.2-0.3-2.9,0.3
			c-3.7,0.1-7.3,2.2-8.6,5.8c-1.2,3.3-0.2,7.5,3.4,8.7c3.5,1.1,7.6-1.1,9.5-4.1c1.2,0.6,2.6,0.8,4.3,0.4
			C188.6,37.3,187.3,32.4,184.1,33.1z M173.5,36.8c-1.6-0.7-0.4-2.6,0.3-3.4c0.8-0.8,1.8-1.2,2.9-1.2c0.2,0.5,0.4,0.9,0.6,1.4
			C176.7,35.4,174.8,37.4,173.5,36.8z"/>
		<path id="XMLID_160_" d="M14.8,28.7c1.1,1.7-0.5-3.8-0.3,4.7c0.1,6.3,1.5,26.4-10,23.8c-3.2-0.7-4.6,4.2-1.4,4.9
			c9.4,2.1,15.2-6,15.9-14.3c1.1-13.2,1.1-6.1,0.8-19.2C19.8,25.4,14.5,25.4,14.8,28.7z"/>
		<path id="XMLID_159_" d="M74.4,22.9c-3.2,1-5.6,2.8-6,6.3c-0.2,2-0.5,4-0.7,6c-0.4,3.2,4.6,3.2,5,0c0.2-1.9-0.1-5.6,1.5-6.8
			c1.3-1,4-1.5,5.4-0.7c3,1.7,2.5,5.3,1.9,8.1c-0.7,3.1,4.1,4.5,4.8,1.3c1-4.1,1.1-8.5-1.9-11.8C81.7,22.1,78.3,21.7,74.4,22.9z"/>
	</g>
	<g id="XMLID_29_">
		<path id="XMLID_36_" d="M283.7,35.1c-0.8-8.3-3.3-13.7-12.3-15c-1.7-0.2-4,0-5.4,1.1c-1.6-7.6-5.5-16.2-13.6-19.2
			c-7.7-2.8-16-2.9-23.2,0.6c-6.9,3.4-12.3,9.7-14.8,17c-2.7,7.8-1.7,16.2,3.9,22.4c11.3,12.4,28.8,10.9,40.7,0.8
			c0.6-0.5,1-1.5,1.3-2.1c4.5,7.6,17.1,8.7,21.6,0.6C283.1,39.3,283.5,37.4,283.7,35.1z M258.7,36.3c-3.9,11.4-20.2,14.8-30.4,9.9
			c-9.4-4.5-14.4-13.7-11.7-23.9c2.3-8.7,9.6-16.8,18.6-19.1c4.4-1.1,9.2-0.4,13.5,0.8c2.6,0.7,3.9,1.3,5.7,3.4
			c0.9,1.1,1.3,2,2.5,3.1c0.9,0.8,1.6,1.2,2.3,2.1c2.8,3.4,4,8.7,2.3,12.4c-1.6,3.4-2.8,5.4-2.9,9.3
			C258.7,34.8,258.7,35.9,258.7,36.3z M280.9,33c-0.5,4.3-0.4,8.3-4.9,10.4c-3.5,1.6-8.1,1.2-11.1-1.3c-7.4-6.2-2.2-22.7,8.4-19
			C277.6,24.6,281,28.3,280.9,33z"/>
		<path id="XMLID_35_" d="M279.2,33.7c-1-1.2-3.9-1.3-3.4,0.9C276.3,36.7,279.4,35.8,279.2,33.7z"/>
		<path id="XMLID_34_" d="M267.2,34.7c-0.7-1.8-3.8-1.9-3.6,0.4C263.8,37.5,267,36.6,267.2,34.7z"/>
		<path id="XMLID_33_" d="M272.7,39.4c-1-1.9-4.3-1.1-3.3,1C270.3,42.3,272.7,41.1,272.7,39.4z"/>
		<path id="XMLID_32_" d="M249.4,23.2c-0.8-3.1-4.9-1-4,1.7C246.3,27.7,249.8,25.9,249.4,23.2z"/>
		<path id="XMLID_31_" d="M233.7,22.6c-1.5-3.1-5.2,0.8-3.3,3C232.4,28.1,234.2,24.8,233.7,22.6z"/>
		<path id="XMLID_30_" d="M249.5,35.5c-1.5-2.8-6.2,5.2-9.5,5.4c-4.7,1.1-7.3-2.1-9-6.1c-0.5-1.2-1.3-5.5-3.5-3.5
			c-1.3,1.1,0.4,4.3,1,5.6c1.8,4.2,5.7,8,10.7,7.3C243.5,43.7,249,40.3,249.5,35.5z"/>
	</g>
</g>
</svg>
