<?xml version="1.0" encoding="utf-8"?>
<!-- Generator: Adobe Illustrator 22.1.0, SVG Export Plug-In . SVG Version: 6.00 Build 0)  -->
<svg version="1.1" id="Layer_1" xmlns="http://www.w3.org/2000/svg" xmlns:xlink="http://www.w3.org/1999/xlink" x="0px" y="0px"
	 viewBox="0 0 172 107" style="enable-background:new 0 0 172 107;" xml:space="preserve">
<style type="text/css">
	.st0{fill:#FFFFFF;}
</style>
<g>
	<g>
		<path class="st0" d="M46.3,21.8c-6.5,2.2-6.6,10.5,0,12.7C55.5,37.6,55.7,18.7,46.3,21.8"/>
		<path class="st0" d="M40.7,40.3c3.6-1.5-8.2-10.7-11-13.5c-6.7-6.7-10.8-14.4-12.2-13c-0.9,0.9,6.3,10.1,9.3,14
			C30.3,32.3,35.2,39.7,40.7,40.3"/>
		<path class="st0" d="M57.6,37.1C56.9,35,66.1,26.3,67.3,25c5.1-5.7,9.3-11,10-10.4c0.9,0.9-5.4,8.6-7.9,11.9
			C66.4,30.2,59.1,41.5,57.6,37.1"/>
		<path class="st0" d="M58.5,46.6c5.8-0.4,8.5,7.5,8.9,13.6c0.3,5.2-0.3,8.9-2,13.9c3.9-3.4,4.5-13,4.4-15.8
			c-0.3-7.6-2.1-10.4-4-12.2C64.5,44.6,61.2,41.9,58.5,46.6"/>
		<path class="st0" d="M38.1,53.1c1.8,2.3,2.8,5.4,3.3,8.7c1.4,0,2.7,0.1,4,0.1c-0.9-9.7-4.3-17.8-10.9-12c-2.7,3-4.3,7.2-5,11.6
			c0.3,0,0.7,0,1-0.1C31.5,54.6,34.4,49.5,38.1,53.1"/>
		<path class="st0" d="M40.8,77.7c-1.6,4.2-4.7,7.6-8.1,2.1c0-0.1-0.1-0.1-0.1-0.2c-0.1,0.2-0.3,0.5-0.4,0.7
			c2.3,4.4,5.9,7.2,10.3,1.7c0.2-0.2,0.4-0.5,0.5-0.8C42.6,79.8,41.8,78.6,40.8,77.7"/>
		<path class="st0" d="M61.6,55.6c1.1,0.2,2-2.5,1.6-3.2c-0.5-0.7-3.8-2.4-4.4-2C57.2,51.2,61.3,55.5,61.6,55.6"/>
		<path class="st0" d="M49.3,49.7c1.5-0.5,4.3,2.1,4,2.9c-0.3,0.8-4.3,3.1-5.5,2.9C45.1,54.9,48.9,49.8,49.3,49.7"/>
		<path class="st0" d="M27.2,62.8c-0.5-1.6-4.6,0.6-4.2-10.5c-1.1,2.2-2.4,14.1,1.9,11.8c0.7-0.4,1.7-0.8,2.2-1
			C27.3,63,27.2,62.8,27.2,62.8"/>
		<path class="st0" d="M18.6,87.9c3.2-13.6-1.2-25.1,17.3-24.5c6.7,0.2,13.9-1,16.6,2.2C57.2,71,60.1,90,58.6,90
			c-1.5,0-5-15.8-9.9-11c-3.1,3-0.7,14.6-2.3,14.6c-1.2,0,0.2-18.8-7.2-19.5c-8.5-0.7-11.1,13.7-12,13.2c-0.5-0.3,1.9-8.1,2.6-12.2
			c-6.2-0.4-7.9,14.7-11.7,14.7C17.5,89.9,18.5,88.6,18.6,87.9"/>
		<path class="st0" d="M48.6,61.4c-1.4-3.3,5.3-9.3,7.6-8.6c2.3,0.7,9,9.8,8.5,12.4C63.4,71.1,48.9,62.2,48.6,61.4"/>
		<g>
			<path class="st0" d="M85.2,61.4v10.6h-3.6V45h10c3,0,5.3,0.8,6.9,2.3c1.7,1.5,2.5,3.5,2.5,6c0,2.6-0.8,4.6-2.5,6.1
				c-1.6,1.4-4,2.1-7,2.1H85.2z M85.2,58.5h6.4c1.9,0,3.4-0.4,4.4-1.3c1-0.9,1.5-2.2,1.5-3.9c0-1.6-0.5-2.9-1.5-3.9
				s-2.4-1.5-4.2-1.5h-6.6V58.5z"/>
			<path class="st0" d="M117.9,64.9h-11.3l-2.5,7.1h-3.7l10.3-27h3.1l10.3,27h-3.7L117.9,64.9z M107.7,62h9.2l-4.6-12.6L107.7,62z"
				/>
			<path class="st0" d="M132.3,45l8.8,22l8.8-22h4.6v27H151V61.4l0.3-11.3l-8.9,21.8h-2.7L131,50.1l0.4,11.3v10.5h-3.6V45H132.3z"/>
		</g>
	</g>
</g>
</svg>
