<?xml version="1.0" encoding="utf-8"?>
<!-- Generator: Adobe Illustrator 22.1.0, SVG Export Plug-In . SVG Version: 6.00 Build 0)  -->
<svg version="1.1" id="Layer_1" xmlns="http://www.w3.org/2000/svg" xmlns:xlink="http://www.w3.org/1999/xlink" x="0px" y="0px"
	 viewBox="0 0 184 107" style="enable-background:new 0 0 184 107;" xml:space="preserve">
<style type="text/css">
	.st0{fill:#FFFFFF;}
</style>
<path class="st0" d="M14.5,56.5c0.2,0.5,0.5,0.8,0.9,1.1c0.4,0.3,0.8,0.5,1.4,0.6c0.5,0.1,1.1,0.2,1.6,0.2c0.4,0,0.8,0,1.2-0.1
	c0.4-0.1,0.8-0.2,1.2-0.4c0.4-0.2,0.7-0.4,1-0.7c0.3-0.3,0.4-0.7,0.4-1.2c0-0.5-0.2-1-0.5-1.3c-0.3-0.3-0.8-0.6-1.3-0.8
	c-0.5-0.2-1.2-0.4-1.8-0.6c-0.7-0.2-1.4-0.3-2.1-0.5c-0.7-0.2-1.4-0.4-2.1-0.7c-0.7-0.3-1.3-0.6-1.8-1c-0.5-0.4-1-0.9-1.3-1.6
	c-0.3-0.6-0.5-1.4-0.5-2.3c0-1,0.2-1.9,0.6-2.6c0.4-0.7,1-1.3,1.7-1.8c0.7-0.5,1.5-0.9,2.3-1.1c0.9-0.2,1.7-0.4,2.6-0.4
	c1,0,2,0.1,2.9,0.3c0.9,0.2,1.8,0.6,2.5,1.1c0.7,0.5,1.3,1.2,1.7,1.9c0.4,0.8,0.6,1.7,0.6,2.9h-4.1c0-0.6-0.2-1.1-0.4-1.4
	c-0.2-0.4-0.5-0.7-0.8-0.9c-0.3-0.2-0.7-0.4-1.2-0.5c-0.4-0.1-0.9-0.1-1.5-0.1c-0.3,0-0.7,0-1,0.1c-0.3,0.1-0.7,0.2-0.9,0.4
	c-0.3,0.2-0.5,0.4-0.7,0.7c-0.2,0.3-0.3,0.6-0.3,1c0,0.4,0.1,0.7,0.2,0.9c0.1,0.2,0.4,0.5,0.9,0.7c0.4,0.2,1,0.4,1.8,0.6
	c0.8,0.2,1.7,0.5,2.9,0.8c0.4,0.1,0.9,0.2,1.5,0.4c0.6,0.2,1.3,0.5,1.9,0.9c0.6,0.4,1.2,1,1.6,1.7c0.5,0.7,0.7,1.6,0.7,2.7
	c0,0.9-0.2,1.7-0.5,2.5c-0.3,0.8-0.9,1.4-1.5,2c-0.7,0.6-1.5,1-2.5,1.3c-1,0.3-2.2,0.5-3.5,0.5c-1.1,0-2.1-0.1-3.1-0.4
	c-1-0.3-1.9-0.7-2.7-1.2c-0.8-0.6-1.4-1.3-1.8-2.1C10.2,57.1,10,56,10,54.8h4.1C14.1,55.5,14.2,56,14.5,56.5"/>
<path class="st0" d="M32.5,57.9c0.6,0.6,1.4,0.8,2.5,0.8c0.8,0,1.4-0.2,2-0.6c0.6-0.4,0.9-0.8,1-1.2h3.4c-0.5,1.7-1.4,2.9-2.5,3.6
	c-1.1,0.7-2.5,1.1-4.1,1.1c-1.1,0-2.1-0.2-3-0.5c-0.9-0.4-1.6-0.9-2.3-1.5c-0.6-0.7-1.1-1.4-1.4-2.3c-0.3-0.9-0.5-1.9-0.5-3
	c0-1,0.2-2,0.5-2.9c0.3-0.9,0.8-1.7,1.5-2.3c0.6-0.7,1.4-1.2,2.3-1.6c0.9-0.4,1.9-0.6,2.9-0.6c1.2,0,2.2,0.2,3.1,0.7
	c0.9,0.5,1.6,1.1,2.2,1.9c0.6,0.8,1,1.7,1.2,2.7c0.3,1,0.3,2,0.3,3.1H31.6C31.6,56.4,32,57.3,32.5,57.9 M36.9,50.5
	c-0.5-0.5-1.2-0.8-2.1-0.8c-0.6,0-1.1,0.1-1.5,0.3c-0.4,0.2-0.7,0.5-1,0.8c-0.2,0.3-0.4,0.6-0.5,1c-0.1,0.3-0.2,0.7-0.2,0.9h6.3
	C37.7,51.8,37.4,51,36.9,50.5"/>
<path class="st0" d="M47.7,47.2v2.6h0.1c0.2-0.4,0.4-0.8,0.7-1.2c0.3-0.4,0.7-0.7,1.1-1c0.4-0.3,0.8-0.5,1.3-0.6
	c0.5-0.1,0.9-0.2,1.4-0.2c0.3,0,0.5,0,0.8,0.1v3.6c-0.2,0-0.4-0.1-0.7-0.1c-0.3,0-0.5,0-0.7,0c-0.7,0-1.3,0.1-1.8,0.4
	c-0.5,0.2-0.9,0.6-1.2,1c-0.3,0.4-0.5,0.9-0.6,1.4c-0.1,0.5-0.2,1.1-0.2,1.8v6.3H44v-14H47.7z"/>
<path class="st0" d="M58.2,47.2v2.6h0.1c0.2-0.4,0.4-0.8,0.7-1.2c0.3-0.4,0.7-0.7,1.1-1c0.4-0.3,0.8-0.5,1.3-0.6
	c0.5-0.1,0.9-0.2,1.4-0.2c0.3,0,0.5,0,0.8,0.1v3.6c-0.2,0-0.4-0.1-0.7-0.1c-0.3,0-0.5,0-0.7,0c-0.7,0-1.3,0.1-1.8,0.4
	c-0.5,0.2-0.9,0.6-1.2,1c-0.3,0.4-0.5,0.9-0.6,1.4c-0.1,0.5-0.2,1.1-0.2,1.8v6.3h-3.9v-14H58.2z"/>
<path class="st0" d="M65,51.5c0.1-0.9,0.3-1.7,0.7-2.3c0.4-0.6,0.9-1.1,1.5-1.4c0.6-0.4,1.3-0.6,2.1-0.8c0.8-0.2,1.5-0.2,2.3-0.2
	c0.7,0,1.4,0.1,2.1,0.1c0.7,0.1,1.4,0.3,2,0.6c0.6,0.3,1.1,0.7,1.5,1.2c0.4,0.5,0.6,1.2,0.6,2.1v7.3c0,0.6,0,1.2,0.1,1.8
	c0.1,0.6,0.2,1,0.4,1.3h-3.9c-0.1-0.2-0.1-0.4-0.2-0.7c0-0.2-0.1-0.5-0.1-0.7c-0.6,0.6-1.3,1.1-2.2,1.3c-0.8,0.3-1.7,0.4-2.6,0.4
	c-0.7,0-1.3-0.1-1.9-0.2c-0.6-0.2-1.1-0.4-1.5-0.8c-0.4-0.3-0.8-0.8-1-1.3c-0.2-0.5-0.4-1.1-0.4-1.9c0-0.8,0.1-1.5,0.4-2
	c0.3-0.5,0.6-0.9,1.1-1.2c0.4-0.3,1-0.5,1.5-0.7c0.6-0.2,1.1-0.3,1.7-0.4c0.6-0.1,1.1-0.2,1.7-0.2c0.6-0.1,1.1-0.1,1.5-0.2
	c0.4-0.1,0.8-0.3,1-0.5c0.3-0.2,0.4-0.5,0.4-0.9c0-0.4-0.1-0.7-0.2-1c-0.1-0.2-0.3-0.4-0.5-0.6c-0.2-0.1-0.5-0.2-0.8-0.3
	c-0.3,0-0.6-0.1-1-0.1c-0.8,0-1.4,0.2-1.8,0.5c-0.4,0.3-0.7,0.9-0.8,1.6H65z M73.9,54.4c-0.2,0.1-0.4,0.3-0.6,0.3
	c-0.2,0.1-0.5,0.1-0.8,0.2c-0.3,0.1-0.6,0.1-0.9,0.1c-0.3,0-0.6,0.1-0.9,0.1c-0.3,0.1-0.6,0.1-0.9,0.2c-0.3,0.1-0.5,0.2-0.7,0.4
	c-0.2,0.2-0.4,0.3-0.5,0.6c-0.1,0.2-0.2,0.5-0.2,0.9c0,0.3,0.1,0.6,0.2,0.9c0.1,0.2,0.3,0.4,0.5,0.6c0.2,0.1,0.5,0.2,0.8,0.3
	c0.3,0.1,0.6,0.1,0.9,0.1c0.8,0,1.3-0.1,1.8-0.4c0.4-0.3,0.7-0.6,0.9-0.9c0.2-0.4,0.3-0.7,0.4-1.1c0-0.4,0.1-0.7,0.1-0.9V54.4z"/>
<path class="st0" d="M88.4,47.2v2.6h-2.8v7c0,0.7,0.1,1.1,0.3,1.3c0.2,0.2,0.7,0.3,1.3,0.3c0.2,0,0.4,0,0.6,0c0.2,0,0.4,0,0.6-0.1v3
	c-0.3,0.1-0.7,0.1-1.1,0.1c-0.4,0-0.8,0-1.2,0c-0.6,0-1.2,0-1.7-0.1c-0.5-0.1-1-0.2-1.4-0.5c-0.4-0.2-0.7-0.6-1-1
	c-0.2-0.4-0.4-1-0.4-1.7v-8.3h-2.3v-2.6h2.3V43h3.9v4.2H88.4z"/>
<polygon class="st0" points="11.3,64.1 11.3,73.6 17,73.6 17,74.8 9.9,74.8 9.9,64.1 "/>
<path class="st0" d="M25.3,74.8c-0.2,0.1-0.5,0.2-0.9,0.2c-0.3,0-0.6-0.1-0.8-0.3c-0.2-0.2-0.3-0.5-0.3-0.9
	c-0.4,0.4-0.8,0.7-1.2,0.9c-0.5,0.2-1,0.3-1.5,0.3c-0.4,0-0.7,0-1-0.1c-0.3-0.1-0.6-0.2-0.8-0.4c-0.2-0.2-0.4-0.4-0.5-0.7
	c-0.1-0.3-0.2-0.6-0.2-1c0-0.4,0.1-0.8,0.2-1.1c0.1-0.3,0.3-0.5,0.6-0.7c0.2-0.2,0.5-0.3,0.8-0.4c0.3-0.1,0.6-0.2,1-0.2
	c0.4-0.1,0.7-0.1,1-0.2c0.3,0,0.6-0.1,0.8-0.2c0.2-0.1,0.4-0.2,0.6-0.3c0.1-0.1,0.2-0.3,0.2-0.5c0-0.3-0.1-0.5-0.2-0.7
	c-0.1-0.2-0.2-0.3-0.4-0.4c-0.2-0.1-0.4-0.2-0.6-0.2c-0.2,0-0.4,0-0.6,0c-0.5,0-1,0.1-1.4,0.3c-0.4,0.2-0.6,0.6-0.6,1.2h-1.3
	c0-0.5,0.1-0.9,0.3-1.2c0.2-0.3,0.4-0.6,0.7-0.8c0.3-0.2,0.6-0.4,1-0.4c0.4-0.1,0.8-0.1,1.2-0.1c0.4,0,0.7,0,1,0.1
	c0.3,0.1,0.7,0.2,0.9,0.3c0.3,0.2,0.5,0.4,0.7,0.7c0.2,0.3,0.3,0.6,0.3,1.1v4c0,0.3,0,0.5,0.1,0.7c0,0.1,0.2,0.2,0.4,0.2
	c0.1,0,0.2,0,0.4-0.1V74.8z M23.3,70.8c-0.2,0.1-0.4,0.2-0.6,0.3c-0.3,0.1-0.5,0.1-0.8,0.1c-0.3,0-0.6,0.1-0.9,0.1
	c-0.3,0-0.6,0.1-0.8,0.2c-0.2,0.1-0.4,0.2-0.6,0.4c-0.1,0.2-0.2,0.4-0.2,0.8c0,0.2,0,0.4,0.1,0.5c0.1,0.1,0.2,0.3,0.3,0.4
	c0.1,0.1,0.3,0.2,0.5,0.2c0.2,0,0.4,0.1,0.6,0.1c0.4,0,0.8-0.1,1.1-0.2c0.3-0.1,0.5-0.3,0.7-0.4c0.2-0.2,0.3-0.4,0.4-0.6
	c0.1-0.2,0.1-0.4,0.1-0.6V70.8z"/>
<path class="st0" d="M28.3,64.1v4h0c0.2-0.4,0.5-0.7,1-0.9c0.5-0.2,0.9-0.3,1.5-0.3c0.6,0,1.1,0.1,1.6,0.3c0.4,0.2,0.8,0.5,1.1,0.9
	c0.3,0.4,0.5,0.8,0.7,1.3c0.2,0.5,0.2,1,0.2,1.6c0,0.6-0.1,1.1-0.2,1.6c-0.1,0.5-0.4,0.9-0.7,1.3c-0.3,0.4-0.7,0.7-1.1,0.9
	c-0.4,0.2-1,0.3-1.6,0.3c-0.2,0-0.4,0-0.6-0.1c-0.2,0-0.5-0.1-0.7-0.2c-0.2-0.1-0.4-0.2-0.7-0.4c-0.2-0.2-0.4-0.3-0.5-0.6h0v1H27
	V64.1H28.3z M32.9,69.8c-0.1-0.3-0.2-0.7-0.4-0.9c-0.2-0.3-0.4-0.5-0.8-0.6C31.4,68.1,31,68,30.6,68c-0.4,0-0.8,0.1-1.1,0.3
	c-0.3,0.2-0.5,0.4-0.7,0.7c-0.2,0.3-0.3,0.6-0.4,0.9c-0.1,0.4-0.1,0.7-0.1,1.1c0,0.4,0,0.7,0.1,1.1c0.1,0.4,0.2,0.7,0.4,0.9
	c0.2,0.3,0.4,0.5,0.8,0.7c0.3,0.2,0.7,0.2,1.1,0.2c0.4,0,0.8-0.1,1.1-0.3c0.3-0.2,0.5-0.4,0.7-0.7c0.2-0.3,0.3-0.6,0.4-1
	c0.1-0.4,0.1-0.7,0.1-1.1C33,70.5,33,70.2,32.9,69.8"/>
<path class="st0" d="M37.4,67.1v1.6h0c0.3-0.6,0.7-1.1,1.1-1.4c0.5-0.3,1-0.4,1.7-0.4v1.4c-0.5,0-0.9,0.1-1.3,0.2
	c-0.4,0.1-0.7,0.3-0.9,0.6c-0.2,0.3-0.4,0.6-0.5,1c-0.1,0.4-0.2,0.8-0.2,1.3v3.5h-1.3v-7.8H37.4z"/>
<path class="st0" d="M48.6,74.8c-0.2,0.1-0.5,0.2-0.9,0.2c-0.3,0-0.6-0.1-0.8-0.3c-0.2-0.2-0.3-0.5-0.3-0.9
	c-0.4,0.4-0.8,0.7-1.2,0.9c-0.5,0.2-1,0.3-1.5,0.3c-0.4,0-0.7,0-1-0.1c-0.3-0.1-0.6-0.2-0.8-0.4c-0.2-0.2-0.4-0.4-0.5-0.7
	c-0.1-0.3-0.2-0.6-0.2-1c0-0.4,0.1-0.8,0.2-1.1c0.1-0.3,0.3-0.5,0.6-0.7c0.2-0.2,0.5-0.3,0.8-0.4c0.3-0.1,0.6-0.2,1-0.2
	c0.4-0.1,0.7-0.1,1-0.2c0.3,0,0.6-0.1,0.8-0.2c0.2-0.1,0.4-0.2,0.6-0.3c0.1-0.1,0.2-0.3,0.2-0.5c0-0.3-0.1-0.5-0.2-0.7
	c-0.1-0.2-0.2-0.3-0.4-0.4c-0.2-0.1-0.4-0.2-0.6-0.2c-0.2,0-0.4,0-0.6,0c-0.5,0-1,0.1-1.4,0.3c-0.4,0.2-0.6,0.6-0.6,1.2h-1.3
	c0-0.5,0.1-0.9,0.3-1.2c0.2-0.3,0.4-0.6,0.7-0.8c0.3-0.2,0.6-0.4,1-0.4c0.4-0.1,0.8-0.1,1.2-0.1c0.4,0,0.7,0,1,0.1
	c0.3,0.1,0.7,0.2,0.9,0.3c0.3,0.2,0.5,0.4,0.7,0.7c0.2,0.3,0.3,0.6,0.3,1.1v4c0,0.3,0,0.5,0.1,0.7c0,0.1,0.2,0.2,0.4,0.2
	c0.1,0,0.2,0,0.4-0.1V74.8z M46.5,70.8c-0.2,0.1-0.4,0.2-0.6,0.3c-0.3,0.1-0.5,0.1-0.8,0.1c-0.3,0-0.6,0.1-0.9,0.1
	c-0.3,0-0.6,0.1-0.8,0.2c-0.2,0.1-0.4,0.2-0.6,0.4c-0.1,0.2-0.2,0.4-0.2,0.8c0,0.2,0,0.4,0.1,0.5c0.1,0.1,0.2,0.3,0.3,0.4
	c0.1,0.1,0.3,0.2,0.5,0.2c0.2,0,0.4,0.1,0.6,0.1c0.4,0,0.8-0.1,1.1-0.2c0.3-0.1,0.5-0.3,0.7-0.4c0.2-0.2,0.3-0.4,0.4-0.6
	c0.1-0.2,0.1-0.4,0.1-0.6V70.8z"/>
<path class="st0" d="M55.9,74.8v-1.1h0c-0.2,0.4-0.5,0.7-1,0.9c-0.5,0.2-0.9,0.3-1.5,0.3c-0.6,0-1.1-0.1-1.6-0.3
	c-0.4-0.2-0.8-0.5-1.1-0.9c-0.3-0.4-0.5-0.8-0.7-1.3c-0.2-0.5-0.2-1-0.2-1.6c0-0.6,0.1-1.1,0.2-1.6c0.1-0.5,0.4-0.9,0.7-1.3
	c0.3-0.4,0.7-0.7,1.1-0.9c0.4-0.2,1-0.3,1.6-0.3c0.2,0,0.4,0,0.6,0.1c0.2,0,0.5,0.1,0.7,0.2c0.2,0.1,0.4,0.2,0.7,0.4
	c0.2,0.2,0.4,0.3,0.5,0.6h0v-4h1.3v10.7H55.9z M51.3,72.1c0.1,0.3,0.2,0.7,0.4,0.9c0.2,0.3,0.4,0.5,0.8,0.6c0.3,0.2,0.7,0.2,1.1,0.2
	c0.4,0,0.8-0.1,1.1-0.3c0.3-0.2,0.5-0.4,0.7-0.7c0.2-0.3,0.3-0.6,0.4-0.9c0.1-0.3,0.1-0.7,0.1-1.1c0-0.4,0-0.7-0.1-1.1
	c-0.1-0.4-0.2-0.7-0.4-0.9c-0.2-0.3-0.4-0.5-0.8-0.7c-0.3-0.2-0.7-0.2-1.1-0.2c-0.4,0-0.8,0.1-1.1,0.3c-0.3,0.2-0.5,0.4-0.7,0.7
	c-0.2,0.3-0.3,0.6-0.4,1c-0.1,0.4-0.1,0.7-0.1,1.1C51.2,71.4,51.2,71.7,51.3,72.1"/>
<path class="st0" d="M59.4,69.3c0.2-0.5,0.4-0.9,0.7-1.3c0.3-0.4,0.7-0.7,1.2-0.9c0.5-0.2,1-0.3,1.6-0.3c0.6,0,1.2,0.1,1.6,0.3
	c0.5,0.2,0.9,0.5,1.2,0.9c0.3,0.4,0.6,0.8,0.7,1.3c0.2,0.5,0.2,1,0.2,1.6c0,0.6-0.1,1.1-0.2,1.6c-0.2,0.5-0.4,0.9-0.7,1.3
	c-0.3,0.4-0.7,0.7-1.2,0.9c-0.5,0.2-1,0.3-1.6,0.3c-0.6,0-1.2-0.1-1.6-0.3c-0.5-0.2-0.9-0.5-1.2-0.9c-0.3-0.4-0.6-0.8-0.7-1.3
	c-0.2-0.5-0.2-1-0.2-1.6C59.1,70.4,59.2,69.8,59.4,69.3 M60.7,72.2c0.1,0.4,0.3,0.7,0.5,0.9c0.2,0.2,0.5,0.4,0.8,0.6
	c0.3,0.1,0.6,0.2,0.9,0.2c0.3,0,0.6-0.1,0.9-0.2c0.3-0.1,0.6-0.3,0.8-0.6c0.2-0.2,0.4-0.6,0.5-0.9c0.1-0.4,0.2-0.8,0.2-1.3
	s-0.1-0.9-0.2-1.3c-0.1-0.4-0.3-0.7-0.5-0.9c-0.2-0.2-0.5-0.4-0.8-0.6c-0.3-0.1-0.6-0.2-0.9-0.2c-0.3,0-0.6,0.1-0.9,0.2
	c-0.3,0.1-0.6,0.3-0.8,0.6c-0.2,0.3-0.4,0.6-0.5,0.9c-0.1,0.4-0.2,0.8-0.2,1.3S60.6,71.8,60.7,72.2"/>
<path class="st0" d="M69.8,67.1v1.6h0c0.3-0.6,0.7-1.1,1.1-1.4c0.5-0.3,1-0.4,1.7-0.4v1.4c-0.5,0-0.9,0.1-1.3,0.2
	c-0.4,0.1-0.7,0.3-0.9,0.6c-0.2,0.3-0.4,0.6-0.5,1c-0.1,0.4-0.2,0.8-0.2,1.3v3.5h-1.3v-7.8H69.8z"/>
<path class="st0" d="M79.3,74.3C78.7,74.8,78,75,77.1,75c-0.6,0-1.2-0.1-1.6-0.3c-0.5-0.2-0.8-0.5-1.1-0.8s-0.5-0.8-0.7-1.3
	c-0.2-0.5-0.2-1-0.3-1.6c0-0.6,0.1-1.1,0.3-1.6c0.2-0.5,0.4-0.9,0.8-1.3c0.3-0.4,0.7-0.6,1.2-0.8s0.9-0.3,1.5-0.3
	c0.7,0,1.3,0.1,1.7,0.4s0.8,0.6,1.1,1.1c0.3,0.4,0.5,0.9,0.6,1.4c0.1,0.5,0.1,1,0.1,1.5h-5.8c0,0.3,0,0.7,0.1,1
	c0.1,0.3,0.2,0.6,0.4,0.8c0.2,0.2,0.5,0.4,0.8,0.6c0.3,0.1,0.7,0.2,1.1,0.2c0.5,0,1-0.1,1.3-0.4c0.3-0.3,0.6-0.6,0.7-1.1h1.3
	C80.2,73.2,79.9,73.9,79.3,74.3 M79,69.3c-0.1-0.3-0.3-0.5-0.5-0.7c-0.2-0.2-0.4-0.4-0.7-0.5c-0.3-0.1-0.6-0.2-0.9-0.2
	c-0.3,0-0.6,0.1-0.9,0.2c-0.3,0.1-0.5,0.3-0.7,0.5c-0.2,0.2-0.3,0.4-0.5,0.7c-0.1,0.3-0.2,0.5-0.2,0.8h4.5
	C79.2,69.9,79.1,69.6,79,69.3"/>
<path class="st0" d="M83.3,73.1c0.1,0.2,0.3,0.4,0.5,0.5c0.2,0.1,0.4,0.2,0.7,0.2c0.2,0.1,0.5,0.1,0.8,0.1c0.2,0,0.4,0,0.6,0
	c0.2,0,0.4-0.1,0.6-0.2c0.2-0.1,0.3-0.2,0.5-0.4C87,73.2,87,73,87,72.7c0-0.3-0.1-0.6-0.4-0.8c-0.3-0.2-0.6-0.3-0.9-0.4
	c-0.4-0.1-0.8-0.2-1.2-0.3c-0.4-0.1-0.8-0.2-1.2-0.4c-0.4-0.2-0.7-0.4-0.9-0.7C82.1,70,82,69.6,82,69.1c0-0.4,0.1-0.7,0.3-1
	c0.2-0.3,0.4-0.5,0.7-0.7c0.3-0.2,0.6-0.3,0.9-0.4c0.3-0.1,0.7-0.1,1-0.1c0.4,0,0.8,0,1.2,0.1c0.4,0.1,0.7,0.2,1,0.4
	c0.3,0.2,0.5,0.4,0.7,0.8c0.2,0.3,0.3,0.7,0.3,1.2h-1.3c0-0.2-0.1-0.5-0.2-0.6c-0.1-0.2-0.3-0.3-0.4-0.4c-0.2-0.1-0.4-0.2-0.6-0.2
	C85.4,68,85.2,68,85,68c-0.2,0-0.4,0-0.6,0c-0.2,0-0.4,0.1-0.5,0.2c-0.2,0.1-0.3,0.2-0.4,0.3c-0.1,0.1-0.1,0.3-0.1,0.5
	c0,0.2,0.1,0.4,0.2,0.5c0.2,0.1,0.4,0.3,0.6,0.4c0.2,0.1,0.5,0.2,0.8,0.2c0.3,0.1,0.6,0.1,0.9,0.2c0.3,0.1,0.6,0.2,0.9,0.3
	c0.3,0.1,0.6,0.2,0.8,0.4c0.2,0.2,0.4,0.4,0.6,0.6c0.1,0.3,0.2,0.6,0.2,0.9c0,0.5-0.1,0.9-0.3,1.2c-0.2,0.3-0.5,0.6-0.8,0.8
	c-0.3,0.2-0.7,0.3-1.1,0.4c-0.4,0.1-0.8,0.1-1.2,0.1c-0.4,0-0.8,0-1.2-0.1c-0.4-0.1-0.7-0.2-1-0.4c-0.3-0.2-0.5-0.5-0.7-0.8
	c-0.2-0.3-0.3-0.7-0.3-1.2h1.3C83.1,72.7,83.1,72.9,83.3,73.1"/>
<g>
	<path class="st0" d="M111.4,69c-0.1-0.3-0.1-0.5,0-0.8c0.2-0.3,0.3-0.3,0.4-0.6c0.5-1.1,0.5-2.2,0.5-3.4c0,0,0.1-0.7,0.3-2
		c0-0.3,0.6-3.5,0.6-4.5c0-0.1,0-1.2,1.1-1.2c0,0,0.6-0.1,0.1,1c0,0-0.3,0.6-0.5,1.5c-0.1,0.7-0.6,3.7-0.6,3.7s-0.3,0.6-0.1,1.5
		c0,0,0,2.2-0.2,3.2c0,0,0,0.7-0.3,1.2c0,0-0.2,0.4-0.2,1.1c0,0.7-0.7,1.6-1.4,1.5c0,0-0.2,0-0.2-0.1c0,0-0.1-0.1-0.1-0.1
		c0-0.2,0.1-0.4,0.2-0.6c0.1-0.2,0.1-0.5,0.2-0.7C111.4,69.5,111.5,69.3,111.4,69C111.4,69,111.4,69,111.4,69"/>
	<path class="st0" d="M156,71c0,0-0.2-0.2,0.2-0.7c0-0.1,0.7-0.8,2.1-0.7l0,0.2c0,0,0,0.6-0.2,1c0,0-0.1,0.4-0.6,0.4
		C157.6,71.2,156.2,71.3,156,71"/>
	<path class="st0" d="M156.3,47.1c0,0,0.1,2.5,0.9,6.1c0,0,0.4,2.1,1.2,3.4c0,0,0.3,1,2.4,2.5c1.4,1,1.8,2,2,2.4
		c0,0,0.5,0.9,0.4,1.8c0,0-0.3-1.2-1.7-2.8c-0.5-0.6-1.5-1.4-2.1-1.8c-2.1-1.7-2-2-2.7-4.2C156.7,54.6,155.6,50,156.3,47.1"/>
	<g>
		<path class="st0" d="M170.8,33.1c-8.7,0.8-14.3-0.7-14.3-0.7c-3.3-0.6-7.6-1.1-7.6-1.1c-4.8-0.9-7.9-0.9-7.9-0.9l-10.4-0.1
			c-2.8-0.2-5.3-0.6-8.4-1.7c-2.3-0.8-4.5-1.1-4.5-1.1c-3.4-0.6-5.6-2.4-5.6-2.4c-1.4-0.8-3.2-1.9-4.7-3.3c-1.6-1.4-4.5-4.9-4.5-4.9
			c-2.6-4-3.4-4.6-3.4-4.6c-0.7-0.5-1.5-1-2.4-1.2c-0.3-0.1-0.6-0.2-0.9-0.2c-0.1,0-0.3,0-0.4-0.1c-0.2,0-0.5,0-0.7-0.1
			c-0.2,0-0.8-0.1-1-0.1c-0.7,0-0.6,0.1-1.1,0.1c-0.4,0.1-0.8,0.2-1.1,0.4c-0.4,0.2-0.6,0.5-0.9,0.8c-0.8,0.8-1.9,0.4-1.9,0.4
			c-0.7-0.3-3.5-1.2-3.5-1.2c-0.5-0.1-0.8-0.2-0.8-0.2c-1.8-0.7-1.6,1-1.6,1c-0.5,1.2-0.3,2.9-0.3,2.9c0.7,3.3,2.6,3.4,2.6,3.4
			c1.8,0.4,2,0.8,2,0.8c0.2,0.4-0.9,0.4-0.9,0.4c-0.2,0-0.8,0-0.8,0l-1.1,0.1c-1.2-0.1-2.1,0.4-2.1,0.4c-0.8,0.2-0.6,0.6-0.6,0.6
			c0,0.3,0.8,0.1,0.9,0.1c0.5-0.1,0.4,0.3,0.4,0.3l-0.3,0.2c-0.4,0.4-0.1,0.8-0.1,0.8c0.7,1.5,2.9,2.1,2.9,2.1l2.7,0.7
			c0.6,1.1,1.7,1.3,1.7,1.3c1.1,0.3,0.4,1.3,0.4,1.3c-0.5,1.2,0.4,1.7,0.4,1.7c0.5,0.5,0.2,1.9,0.2,1.9c-0.2,1.2,0.2,1.8,0.2,1.8
			c0.6,1.2,2,3.5,2,3.5l0.9,1.7l1.3,5.6c1,4.4,6.1,8.5,6.1,8.5c1.5,1.3,2.6,2.7,2.6,2.7c0.8,1.6,1.4,5.5,1.4,5.5
			c-0.1,2.5,0.6,5.2,0.6,5.2c0.2,1.6-0.3,3.3-0.3,3.3c-0.1,0.7-0.4,1.3-0.4,1.3c-0.9,0.7-1.7,1.2-1.7,1.2c-0.7,0.4-2.1,1.5-2.1,1.5
			c-0.6,0.6-0.7,1.4-0.7,1.4c0.4,1.6,4.1,0.9,7.1,1c1,0,1-2,1-2c1.2-0.5,1.8-2.6,2.1-3.5c0.1-0.3,0-0.4,0-0.4
			c-0.3-0.9,0.1-1.2,0.1-1.2c0.4-0.5,0.5-1,0.5-1c0.1-0.9,0.3-2.8,0.3-3.2c0-0.4,0.9-6.2,0.9-6.2c0.1-1.6,1.7-1.4,1.7-1.4
			s2-0.1,2.2,0c0.7,0,1.9,0.1,1.9,0.1c2.2,0.1,4.3,0.2,4.3,0.2c3.7,0.2,8.3-1.4,8.3-1.4c1.2-0.5,1.2,0,1.2,0c-0.5,1,0,1.3,0,1.3
			c1,1.2,2.4,0.8,2.4,0.8c2.8-0.3,3.5-2,3.7-2.3c0.4-0.5,0.4-1.4,0.4-1.4c0.2-1,1.3-0.1,1.3-0.1l2.6,2.8c2.9,4.1,9.9,6,9.9,6
			c1.6,0.5,3.4,2.3,3.4,2.3c2.5,2.2,2.3,3.9,2.3,3.9c0.1,0.8,0,1.7-0.2,2.6c-0.1,0.4-0.1,0.4-0.5,0.6c-0.5,0.2-1,0.4-1.5,0.6
			c-0.1,0.1-0.2,0.1-0.3,0.2c-0.5,0.3-1.5,1.6-0.9,2.1c0.6,0.6,1.5,0.7,2.2,0.7c1.1,0,2.4,0.1,3.3,0c1.7-0.2,1.6-1.2,1.6-1.2
			c-0.2-0.9,0.2-1,0.2-1c0.5-0.2,0.4-0.7,0.4-0.7c0.1-1.5-0.1-4.2,0.1-5.3c0.5-2.8-0.4-3.9-0.5-4.1c-0.5-1-1.6-2.5-2.9-3.2
			c-3.1-1.9-3.3-5-3.3-5c-0.8-2.6-0.7-5.8-0.7-5.8s0.1-1.9,0.1-4.2c0-2.3-2.1-5-2.1-5c-0.3-0.8,0.5-0.6,0.5-0.6s2.3,1.5,5.9,1.3
			c3.8-0.1,5.1-0.9,5.1-0.9c1.3-0.5,3.1-1.3,3.1-1.3c3.8-1.5,5-2.6,5-2.6C175.5,33.4,172.9,32.9,170.8,33.1z M89.8,13.7
			c0-0.1,0.1,0,0.2,0c0,0,0.1,0,0.1,0.1c0,0,0.2,0.1,0.2,0c0-0.1,0-0.2,0-0.2c0-0.1,0.1-0.2,0.2-0.3c0,0,0.1,0,0.1-0.1
			c0.1,0,0-0.2,0-0.3c0-0.1,0-0.2,0.1-0.1c0,0,0,0,0,0.1c0,0.1,0,0.2,0.1,0.2c0,0.1,0.1,0.3,0.1,0.4c0.1,0.2,0.1,0.4,0.2,0.6
			c0,0.1-0.4,0.1-0.4,0.1c-0.2,0-0.3-0.1-0.5-0.1C90.1,13.9,89.8,13.8,89.8,13.7z M97.3,19c0,0,0,0.1-0.1,0.1c0,0,0,0.1-0.1,0.1
			c-0.1,0.1-0.2,0.2-0.4,0.4c-0.4,0.4-1.1,1.1-2.3,2c0,0-0.2,0.2-0.6,0.5c-0.1,0-0.2,0.1-0.2,0.2c-0.3,0.2-0.5,0.3-0.9,0.5
			c-0.2,0.1-0.4,0.2-0.6,0.2S91.7,23,91.5,23c-0.3,0-0.6-0.1-0.8-0.3c0,0-0.6-0.3-0.6-1.4c0-0.5,0.2-1.3,0.5-1.9s0.6-1.2,0.7-1.5
			c0,0,0,0,0.1-0.1c0.1-0.2,0.4-0.5,0.7-1c0.4-0.6,1.1-1.5,1.7-2.2c0,0,0.4-0.5,0.7-1.1c0.1-0.2,0.2-0.4,0.2-0.6c0,0,0,0,0,0.1
			c0,0,0,0.1,0,0.1c0,0,0,0.1,0,0.1c0,0.3-0.1,1-1.3,2.3c0,0-2.9,3.3-3,5.9c0,0.2,0,0.3,0,0.4c0.1,0.4,0.3,0.6,0.5,0.7
			c0.1,0,0.2,0.1,0.3,0.1c0.1,0,0.2,0,0.3,0c0.2,0,0.4-0.1,0.7-0.1c0.9-0.3,1.8-0.9,1.8-0.9S96.6,19.6,97.3,19
			C97.3,19,97.3,19,97.3,19z"/>
	</g>
</g>
</svg>
