<?xml version="1.0" encoding="utf-8"?>
<!-- Generator: Adobe Illustrator 22.1.0, SVG Export Plug-In . SVG Version: 6.00 Build 0)  -->
<svg version="1.1" id="Layer_1" xmlns="http://www.w3.org/2000/svg" xmlns:xlink="http://www.w3.org/1999/xlink" x="0px" y="0px"
	 viewBox="0 0 209 107" style="enable-background:new 0 0 209 107;" xml:space="preserve">
<style type="text/css">
	.st0{fill:#FFFFFF;}
</style>
<g>
	<g>
		<g>
			<path class="st0" d="M103.1,40.8c-0.2-0.1-0.4-0.1-0.6-0.1c-0.6,0-1.1,0.4-1.3,0.9l-10.9,26L79.6,41.8c-0.2-0.5-0.7-0.9-1.3-0.9
				c-0.2,0-0.4,0-0.6,0.1c-0.3,0.1-0.6,0.4-0.8,0.8c-0.1,0.4-0.1,0.8,0,1.1l12,28.7l0,0.1c0,0.1,0.1,0.1,0.1,0.2
				c0.1,0.2,0.2,0.4,0.4,0.5l0,0.2h0.4c0.1,0,0.3,0,0.4,0c0.2,0,0.3,0,0.4-0.1l0.1,0c0.4-0.2,0.8-0.6,0.8-1.1l12.1-28.7
				c0.1-0.3,0.1-0.7,0-1.1C103.7,41.2,103.4,40.9,103.1,40.8"/>
			<path class="st0" d="M110.2,43.4c-0.8,0-1.2,0.5-1.5,0.9l-2.5,3.8c-0.2,0.2-0.2,0.5-0.2,0.7c0,0.5,0.4,0.8,1,0.8
				c0.6,0,1-0.1,1.6-0.7l3.2-3.1c0.3-0.3,0.6-0.6,0.6-1C112.4,43.9,111.1,43.4,110.2,43.4"/>
			<path class="st0" d="M107,51.9c-0.8,0-1.4,0.6-1.4,1.4v17.8c0,0.8,0.7,1.4,1.4,1.4c0.8,0,1.5-0.6,1.5-1.4V53.3
				C108.4,52.5,107.8,51.9,107,51.9"/>
			<path class="st0" d="M122.1,51.9c-2.1,0-4.1,0.8-5.7,2.2v-0.8c0-0.8-0.6-1.4-1.4-1.4c-0.8,0-1.4,0.6-1.4,1.4v18.2l0.1,0.1
				c0,0.1,0,0.1,0.1,0.2c0.2,0.3,0.5,0.6,0.9,0.7l0.4,0c0.4,0,0.8-0.2,1.1-0.5c0.2-0.2,0.2-0.4,0.3-0.6l0-0.1V60.4
				c0.1-3.1,2.6-5.7,5.7-5.7c3.1,0,5.6,2.5,5.6,5.6v10.7c0,0.8,0.6,1.4,1.4,1.4c0.8,0,1.4-0.6,1.4-1.4V60.4
				C130.6,55.7,126.8,51.9,122.1,51.9"/>
			<path class="st0" d="M144.1,54.7c1.7,0,3.4,0.6,4.8,1.7c0.6,0.4,1.5,0.3,2-0.2c0.3-0.3,0.4-0.7,0.3-1.1c0-0.4-0.2-0.7-0.5-0.9
				c-1.9-1.5-4.2-2.3-6.6-2.3c-6,0-10.6,4.5-10.6,10.3c0,5.8,4.7,10.4,10.6,10.4c2.3,0,4.7-0.8,6.5-2.2c0.3-0.3,0.6-0.6,0.6-1
				c0-0.4-0.1-0.8-0.3-1.1c-0.5-0.5-1.3-0.7-1.9-0.2c-1.4,1.1-3.1,1.6-4.8,1.6c-4.4,0-7.8-3.3-7.8-7.5
				C136.3,58,139.8,54.7,144.1,54.7"/>
			<path class="st0" d="M169.1,51.8c-0.8,0-1.4,0.7-1.4,1.4V64c0,3.1-2.5,5.6-5.7,5.7c-3.1,0-5.6-2.5-5.6-5.7V53.3
				c0-0.8-0.6-1.4-1.4-1.4c-0.8,0-1.4,0.6-1.4,1.4V64c0,4.7,3.8,8.5,8.4,8.5c4.7,0,8.6-3.8,8.6-8.5V53.3
				C170.5,52.4,169.9,51.8,169.1,51.8"/>
			<path class="st0" d="M175.7,43.4c-0.8,0-1.4,0.7-1.4,1.4v26.3c0,0.8,0.6,1.4,1.4,1.4c0.8,0,1.5-0.6,1.5-1.4V44.8
				C177.1,44,176.5,43.4,175.7,43.4"/>
			<path class="st0" d="M189.4,51.9c-5.4,0-9.8,4.6-9.8,10.3c0,5.7,4.4,10.3,9.8,10.3c5.4,0,9.8-4.6,9.8-10.3
				C199.2,56.5,194.8,51.9,189.4,51.9 M189.4,69.7c-3.8,0-7-3.4-7-7.5c0-4.1,3.2-7.5,7-7.5c3.8,0,7,3.5,7,7.5
				C196.4,66.3,193.2,69.7,189.4,69.7"/>
			<path class="st0" d="M74.5,57.6l-3.2-4.5c-3.2-12.6-16.7-12.5-17.6-12.5c-14.8,0-18.3,12.7-19,17.5c-2.3-0.5-6.2-0.7-11.6,1.2
				l-12.3,4.2c-0.8,0.3-1.2,1.1-0.9,1.9c0.3,0.8,1.1,1.2,1.9,0.9l11.7-4c-2.6,2.9-5,6.9-3.4,10.3c0.5,1.2,2.2,3.2,5.6,3.4
				c0,0,0.1,0,0.2,0c1.6,0,9.7-0.7,11.5-13.8l15.5,6.7c-0.1,0.3-0.2,0.6-0.2,1c0,1.1,0.6,2,1.4,2.4c-5.5,8.2-21,5.9-21.1,5.9
				c-0.1,0-0.2,0-0.2,0c-4.5,0-6.9,1.2-7.3,1.4c-4.9,2.4-4.9,8.2-4.9,8.4c0,0.8,0.7,1.5,1.5,1.5h0c0.8,0,1.5-0.7,1.5-1.5
				c0,0,0-4.2,3.3-5.7c0,0,0.1,0,0.1-0.1c0,0,1.9-1,5.8-1.1c0.9,0.1,5.8,0.8,11.3-0.1C51.9,80,57,76,58.6,69.7
				c0.2-0.7-0.2-1.4-0.9-1.7l-20.1-8.8c0.4-3.6,2.8-15.5,16.2-15.5h0.1c0,0,3.1-0.1,6.4,1.1c4.4,1.6,7.2,4.8,8.2,9.3
				c0,0.2,0.1,0.4,0.2,0.5l3.4,4.7c0,0,0,0.1,0.1,0.1c0.5,0.6,0.8,1.4,0.7,1.6c0,0-0.1,0.2-0.6,0.3c0,0-0.1,0-0.1,0L70.4,62
				c-0.7,0.2-1.1,0.9-1,1.6c0,0.1,0.8,8.4-5.2,11c-0.7,0.2-4.7,1.9-4.9,6.9c-0.2,2,0.8,6.1,5.7,8c0.2,0.1,0.4,0.1,0.5,0.1
				c0.6,0,1.2-0.4,1.4-1c0.3-0.8-0.1-1.6-0.9-1.9c-3.9-1.5-3.8-4.6-3.8-4.9c0,0,0-0.1,0-0.1c0.1-3.2,2.8-4.2,2.9-4.2
				c0,0,0.1,0,0.1-0.1c6.5-2.8,7.2-10,7.1-12.9l0.6-0.2c1.8-0.5,2.4-1.5,2.7-2.2C76.4,60.1,74.9,58.1,74.5,57.6 M34.4,61.7
				c-1.5,11.8-8.3,11.4-8.5,11.4c0,0-0.1,0-0.1,0c-2.3-0.1-2.9-1.3-3-1.4c0-0.1,0-0.1-0.1-0.2c-1-2,1.2-4.9,2.5-6.5
				c1.6-1.9,3.5-3.5,4.1-4c2.3-0.3,4,0,5,0.2L34.4,61.7z"/>
			<path class="st0" d="M62.8,58c1,0,1.9-0.8,1.9-1.8c0-0.5-0.1-1-0.5-1.4c-0.3-0.4-0.8-0.6-1.3-0.7c-1.1-0.1-2,0.7-2.1,1.8
				c-0.1,1.1,0.7,2,1.8,2.1C62.8,58,62.8,58,62.8,58"/>
			<path class="st0" d="M40,69.8c0.2,0.1,0.4,0.1,0.7,0.1c0.7,0,1.3-0.4,1.6-1.1c0.2-0.4,0.2-0.9,0-1.4c-0.2-0.4-0.5-0.8-1-1
				c-0.2-0.1-0.4-0.1-0.7-0.1c-0.7,0-1.4,0.4-1.6,1.1c-0.2,0.4-0.2,0.9,0,1.4C39.3,69.3,39.6,69.6,40,69.8"/>
		</g>
	</g>
</g>
</svg>
